Lora-Bold.ufo
<glyph name="percent" format="1">
  <advance width="1782"/>
  <unicode hex="0025"/>
  <outline>
    <contour>
      <point x="251" y="37" type="line"/>
      <point x="338" y="-35" type="line"/>
      <point x="1500" y="1385" type="line"/>
      <point x="1407" y="1467" type="line"/>
    </contour>
    <contour>
      <point x="205" y="1463"/>
      <point x="74" y="1261"/>
      <point x="74" y="1070" type="curve" smooth="yes"/>
      <point x="74" y="873"/>
      <point x="201" y="687"/>
      <point x="445" y="687" type="curve" smooth="yes"/>
      <point x="653" y="687"/>
      <point x="821" y="878"/>
      <point x="821" y="1089" type="curve" smooth="yes"/>
      <point x="821" y="1277"/>
      <point x="699" y="1472"/>
      <point x="445" y="1467" type="curve" smooth="yes"/>
    </contour>
    <contour>
      <point x="600" y="1394"/>
      <point x="645" y="1193"/>
      <point x="645" y="1056" type="curve" smooth="yes"/>
      <point x="645" y="929"/>
      <point x="600" y="767"/>
      <point x="451" y="767" type="curve" smooth="yes"/>
      <point x="289" y="767"/>
      <point x="250" y="972"/>
      <point x="250" y="1103" type="curve" smooth="yes"/>
      <point x="250" y="1207"/>
      <point x="293" y="1394"/>
      <point x="447" y="1394" type="curve" smooth="yes"/>
    </contour>
    <contour>
      <point x="1495" y="667"/>
      <point x="1534" y="463"/>
      <point x="1534" y="331" type="curve" smooth="yes"/>
      <point x="1534" y="227"/>
      <point x="1496" y="41"/>
      <point x="1342" y="41" type="curve" smooth="yes"/>
      <point x="1189" y="41"/>
      <point x="1139" y="241"/>
      <point x="1139" y="379" type="curve" smooth="yes"/>
      <point x="1139" y="506"/>
      <point x="1184" y="667"/>
      <point x="1333" y="667" type="curve" smooth="yes"/>
    </contour>
    <contour>
      <point x="1131" y="747"/>
      <point x="961" y="557"/>
      <point x="961" y="346" type="curve" smooth="yes"/>
      <point x="961" y="157"/>
      <point x="1086" y="-37"/>
      <point x="1340" y="-33" type="curve" smooth="yes"/>
      <point x="1579" y="-29"/>
      <point x="1710" y="174"/>
      <point x="1710" y="364" type="curve" smooth="yes"/>
      <point x="1710" y="561"/>
      <point x="1583" y="747"/>
      <point x="1340" y="747" type="curve" smooth="yes"/>
    </contour>
  </outline>
</glyph>
<glyph name="ampersand" format="1">
  <advance width="1423"/>
  <unicode hex="0026"/>
  <outline>
    <contour>
      <point x="400" y="1467"/>
      <point x="242" y="1341"/>
      <point x="240" y="1145" type="curve" smooth="yes"/>
      <point x="239" y="1016"/>
      <point x="286" y="907"/>
      <point x="396" y="771" type="curve"/>
      <point x="198" y="685"/>
      <point x="74" y="544"/>
      <point x="74" y="369" type="curve" smooth="yes"/>
      <point x="74" y="78"/>
      <point x="316" y="-33"/>
      <point x="554" y="-33" type="curve" smooth="yes"/>
      <point x="769" y="-33"/>
      <point x="908" y="57"/>
      <point x="995" y="169" type="curve"/>
      <point x="1137" y="46"/>
      <point x="1224" y="0"/>
      <point x="1250" y="0" type="curve" smooth="yes"/>
      <point x="1440" y="0" type="line"/>
      <point x="1440" y="68" type="line"/>
      <point x="1397" y="68"/>
      <point x="1305" y="119"/>
      <point x="1182" y="229" type="curve" smooth="yes"/>
      <point x="1143" y="263"/>
      <point x="1110" y="294"/>
      <point x="1079" y="322" type="curve"/>
      <point x="1113" y="409"/>
      <point x="1123" y="493"/>
      <point x="1121" y="547" type="curve" smooth="yes"/>
      <point x="1118" y="622"/>
      <point x="1100" y="679"/>
      <point x="1057" y="716" type="curve"/>
      <point x="1227" y="709" type="line"/>
      <point x="1227" y="793" type="line"/>
      <point x="869" y="793" type="line"/>
      <point x="869" y="725" type="line"/>
      <point x="990" y="719"/>
      <point x="1023" y="614"/>
      <point x="1023" y="520" type="curve" smooth="yes"/>
      <point x="1023" y="483"/>
      <point x="1017" y="438"/>
      <point x="1004" y="390" type="curve"/>
      <point x="897" y="489"/>
      <point x="846" y="540"/>
      <point x="789" y="600" type="curve" smooth="yes"/>
      <point x="733" y="658"/>
      <point x="676" y="716"/>
      <point x="624" y="772" type="curve"/>
      <point x="871" y="898"/>
      <point x="961" y="1028"/>
      <point x="961" y="1180" type="curve" smooth="yes"/>
      <point x="961" y="1341"/>
      <point x="826" y="1467"/>
      <point x="619" y="1467" type="curve" smooth="yes"/>
    </contour>
    <contour>
      <point x="547" y="597"/>
      <point x="686" y="463"/>
      <point x="871" y="283" type="curve" smooth="yes"/>
      <point x="891" y="263"/>
      <point x="910" y="245"/>
      <point x="929" y="228" type="curve"/>
      <point x="861" y="135"/>
      <point x="751" y="63"/>
      <point x="580" y="70" type="curve" smooth="yes"/>
      <point x="429" y="76"/>
      <point x="279" y="175"/>
      <point x="279" y="400" type="curve" smooth="yes"/>
      <point x="279" y="484"/>
      <point x="317" y="632"/>
      <point x="448" y="710" type="curve"/>
    </contour>
    <contour>
      <point x="734" y="1400"/>
      <point x="804" y="1305"/>
      <point x="804" y="1173" type="curve" smooth="yes"/>
      <point x="804" y="1053"/>
      <point x="733" y="922"/>
      <point x="579" y="822" type="curve"/>
      <point x="483" y="927"/>
      <point x="412" y="1045"/>
      <point x="412" y="1161" type="curve" smooth="yes"/>
      <point x="412" y="1315"/>
      <point x="496" y="1400"/>
      <point x="609" y="1400" type="curve" smooth="yes"/>
    </contour>
  </outline>
</glyph>
<glyph name="zero" format="1">
  <advance width="1272"/>
  <unicode hex="0030"/>
  <outline>
    <contour>
      <point x="265" y="1467"/>
      <point x="115" y="1055"/>
      <point x="115" y="711" type="curve" smooth="yes"/>
      <point x="115" y="369"/>
      <point x="220" y="-33"/>
      <point x="637" y="-33" type="curve" smooth="yes"/>
      <point x="1018" y="-33"/>
      <point x="1159" y="381"/>
      <point x="1159" y="721" type="curve" smooth="yes"/>
      <point x="1159" y="1063"/>
      <point x="1043" y="1467"/>
      <point x="646" y="1467" type="curve" smooth="yes"/>
    </contour>
    <contour>
      <point x="883" y="1389"/>
      <point x="948" y="1009"/>
      <point x="948" y="677" type="curve" smooth="yes"/>
      <point x="948" y="376"/>
      <point x="883" y="47"/>
      <point x="649" y="47" type="curve" smooth="yes"/>
      <point x="385" y="47"/>
      <point x="326" y="468"/>
      <point x="326" y="753" type="curve" smooth="yes"/>
      <point x="326" y="1058"/>
      <point x="405" y="1389"/>
      <point x="641" y="1389" type="curve" smooth="yes"/>
    </contour>
  </outline>
</glyph>
<glyph name="six" format="1">
  <advance width="1184"/>
  <unicode hex="0036"/>
  <outline>
    <contour>
      <point x="205" y="1467"/>
      <point x="115" y="918"/>
      <point x="115" y="674" type="curve" smooth="yes"/>
      <point x="115" y="240"/>
      <point x="240" y="-33"/>
      <point x="604" y="-33" type="curve" smooth="yes"/>
      <point x="879" y="-33"/>
      <point x="1084" y="180"/>
      <point x="1084" y="436" type="curve" smooth="yes"/>
      <point x="1084" y="643"/>
      <point x="979" y="895"/>
      <point x="651" y="895" type="curve" smooth="yes"/>
      <point x="491" y="895"/>
      <point x="375" y="813"/>
      <point x="307" y="722" type="curve"/>
      <point x="313" y="917"/>
      <point x="363" y="1390"/>
      <point x="676" y="1390" type="curve" smooth="yes"/>
      <point x="789" y="1390"/>
      <point x="864" y="1320"/>
      <point x="879" y="1271" type="curve"/>
      <point x="862" y="1244"/>
      <point x="853" y="1212"/>
      <point x="853" y="1185" type="curve" smooth="yes"/>
      <point x="853" y="1150"/>
      <point x="877" y="1097"/>
      <point x="947" y="1100" type="curve" smooth="yes"/>
      <point x="1006" y="1103"/>
      <point x="1034" y="1149"/>
      <point x="1034" y="1207" type="curve" smooth="yes"/>
      <point x="1034" y="1308"/>
      <point x="916" y="1467"/>
      <point x="672" y="1467" type="curve" smooth="yes"/>
    </contour>
    <contour>
      <point x="838" y="803"/>
      <point x="877" y="545"/>
      <point x="877" y="391" type="curve" smooth="yes"/>
      <point x="877" y="211"/>
      <point x="801" y="47"/>
      <point x="608" y="47" type="curve" smooth="yes"/>
      <point x="393" y="47"/>
      <point x="323" y="318"/>
      <point x="309" y="577" type="curve"/>
      <point x="348" y="695"/>
      <point x="480" y="803"/>
      <point x="608" y="803" type="curve" smooth="yes"/>
    </contour>
  </outline>
</glyph>
<glyph name="eight" format="1">
  <advance width="1151"/>
  <unicode hex="0038"/>
  <outline>
    <contour>
      <point x="377" y="1467"/>
      <point x="149" y="1353"/>
      <point x="149" y="1095" type="curve" smooth="yes"/>
      <point x="149" y="976"/>
      <point x="224" y="852"/>
      <point x="432" y="728" type="curve"/>
      <point x="272" y="628"/>
      <point x="121" y="491"/>
      <point x="121" y="307" type="curve" smooth="yes"/>
      <point x="121" y="49"/>
      <point x="374" y="-33"/>
      <point x="565" y="-33" type="curve" smooth="yes"/>
      <point x="819" y="-33"/>
      <point x="1049" y="81"/>
      <point x="1049" y="339" type="curve" smooth="yes"/>
      <point x="1049" y="516"/>
      <point x="889" y="671"/>
      <point x="707" y="778" type="curve"/>
      <point x="858" y="853"/>
      <point x="984" y="974"/>
      <point x="984" y="1136" type="curve" smooth="yes"/>
      <point x="984" y="1349"/>
      <point x="791" y="1467"/>
      <point x="584" y="1467" type="curve" smooth="yes"/>
    </contour>
    <contour>
      <point x="762" y="584"/>
      <point x="848" y="443"/>
      <point x="848" y="302" type="curve" smooth="yes"/>
      <point x="848" y="141"/>
      <point x="745" y="47"/>
      <point x="569" y="49" type="curve" smooth="yes"/>
      <point x="395" y="51"/>
      <point x="283" y="170"/>
      <point x="293" y="344" type="curve" smooth="yes"/>
      <point x="299" y="445"/>
      <point x="359" y="582"/>
      <point x="509" y="690" type="curve"/>
    </contour>
    <contour>
      <point x="733" y="1385"/>
      <point x="827" y="1288"/>
      <point x="824" y="1113" type="curve" smooth="yes"/>
      <point x="822" y="1010"/>
      <point x="756" y="902"/>
      <point x="634" y="819" type="curve"/>
      <point x="468" y="877"/>
      <point x="340" y="992"/>
      <point x="340" y="1140" type="curve" smooth="yes"/>
      <point x="340" y="1267"/>
      <point x="426" y="1389"/>
      <point x="588" y="1387" type="curve" smooth="yes"/>
    </contour>
  </outline>
</glyph>
<glyph name="equal" format="1">
  <advance width="1212"/>
  <unicode hex="003D"/>
  <outline>
    <contour>
      <point x="150" y="768" type="line"/>
      <point x="1062" y="772" type="line"/>
      <point x="1062" y="891" type="line"/>
      <point x="150" y="895" type="line"/>
    </contour>
    <contour>
      <point x="150" y="383" type="line"/>
      <point x="1062" y="387" type="line"/>
      <point x="1062" y="506" type="line"/>
      <point x="150" y="510" type="line"/>
    </contour>
  </outline>
</glyph>
<glyph name="H" format="1">
  <advance width="1597"/>
  <unicode hex="0048"/>
  <outline>
    <contour>
      <point x="1024" y="1434" type="line"/>
      <point x="1024" y="1343" type="line"/>
      <point x="1172" y="1352" type="line"/>
      <point x="1168" y="1311"/>
      <point x="1166" y="1260"/>
      <point x="1166" y="1204" type="curve" smooth="yes"/>
      <point x="1166" y="774" type="line"/>
      <point x="433" y="774" type="line"/>
      <point x="433" y="1114" type="line" smooth="yes"/>
      <point x="433" y="1260"/>
      <point x="420" y="1360"/>
      <point x="574" y="1366" type="curve"/>
      <point x="574" y="1434" type="line"/>
      <point x="113" y="1434" type="line"/>
      <point x="113" y="1343" type="line"/>
      <point x="261" y="1352" type="line"/>
      <point x="256" y="1311"/>
      <point x="254" y="1260"/>
      <point x="254" y="1204" type="curve" smooth="yes"/>
      <point x="254" y="319" type="line" smooth="yes"/>
      <point x="254" y="174"/>
      <point x="267" y="74"/>
      <point x="113" y="68" type="curve"/>
      <point x="113" y="0" type="line"/>
      <point x="574" y="0" type="line"/>
      <point x="574" y="90" type="line"/>
      <point x="426" y="82" type="line"/>
      <point x="431" y="117"/>
      <point x="433" y="170"/>
      <point x="433" y="244" type="curve" smooth="yes"/>
      <point x="433" y="684" type="line"/>
      <point x="1166" y="693" type="line"/>
      <point x="1166" y="319" type="line" smooth="yes"/>
      <point x="1166" y="174"/>
      <point x="1178" y="74"/>
      <point x="1024" y="68" type="curve"/>
      <point x="1024" y="0" type="line"/>
      <point x="1485" y="0" type="line"/>
      <point x="1485" y="90" type="line"/>
      <point x="1338" y="82" type="line"/>
      <point x="1342" y="117"/>
      <point x="1344" y="170"/>
      <point x="1344" y="244" type="curve" smooth="yes"/>
      <point x="1344" y="1114" type="line" smooth="yes"/>
      <point x="1344" y="1260"/>
      <point x="1332" y="1360"/>
      <point x="1485" y="1366" type="curve"/>
      <point x="1485" y="1434" type="line"/>
    </contour>
    <contour>
      <point x="799" y="717" type="move" name="center"/>
    </contour>
    <contour>
      <point x="799" y="1434" type="move" name="top"/>
    </contour>
  </outline>
</glyph>
<glyph name="L" format="1">
  <advance width="1184"/>
  <unicode hex="004C"/>
  <outline>
    <contour>
      <point x="113" y="1434" type="line"/>
      <point x="113" y="1343" type="line"/>
      <point x="261" y="1352" type="line"/>
      <point x="256" y="1311"/>
      <point x="254" y="1260"/>
      <point x="254" y="1204" type="curve" smooth="yes"/>
      <point x="254" y="319" type="line" smooth="yes"/>
      <point x="254" y="174"/>
      <point x="267" y="74"/>
      <point x="113" y="68" type="curve"/>
      <point x="113" y="0" type="line"/>
      <point x="1129" y="0" type="line"/>
      <point x="1141" y="424" type="line"/>
      <point x="1072" y="424" type="line"/>
      <point x="1072" y="182"/>
      <point x="981" y="84"/>
      <point x="809" y="82" type="curve" smooth="yes"/>
      <point x="426" y="76" type="line"/>
      <point x="431" y="111"/>
      <point x="433" y="162"/>
      <point x="433" y="236" type="curve" smooth="yes"/>
      <point x="433" y="1114" type="line" smooth="yes"/>
      <point x="433" y="1260"/>
      <point x="420" y="1360"/>
      <point x="574" y="1366" type="curve"/>
      <point x="574" y="1434" type="line"/>
    </contour>
    <contour>
      <point x="370" y="1434" type="move" name="top"/>
    </contour>
    <contour>
      <point x="654" y="0" type="move" name="bottom"/>
    </contour>
  </outline>
</glyph>
<glyph name="R" format="1">
  <advance width="1286"/>
  <unicode hex="0052"/>
  <outline>
    <contour>
      <point x="424" y="1439"/>
      <point x="267" y="1436"/>
      <point x="113" y="1434" type="curve"/>
      <point x="113" y="1343" type="line"/>
      <point x="261" y="1352" type="line"/>
      <point x="256" y="1311"/>
      <point x="254" y="1260"/>
      <point x="254" y="1204" type="curve" smooth="yes"/>
      <point x="254" y="319" type="line" smooth="yes"/>
      <point x="254" y="174"/>
      <point x="267" y="74"/>
      <point x="113" y="68" type="curve"/>
      <point x="113" y="0" type="line"/>
      <point x="574" y="0" type="line"/>
      <point x="574" y="90" type="line"/>
      <point x="426" y="82" type="line"/>
      <point x="431" y="117"/>
      <point x="433" y="170"/>
      <point x="433" y="244" type="curve" smooth="yes"/>
      <point x="433" y="642" type="line"/>
      <point x="480" y="638"/>
      <point x="527" y="637"/>
      <point x="572" y="640" type="curve" smooth="yes"/>
      <point x="628" y="587"/>
      <point x="672" y="504"/>
      <point x="709" y="446" type="curve" smooth="yes"/>
      <point x="846" y="227" type="line" smooth="yes"/>
      <point x="904" y="137"/>
      <point x="949" y="70"/>
      <point x="1029" y="0" type="curve"/>
      <point x="1287" y="0" type="line"/>
      <point x="1287" y="68" type="line"/>
      <point x="1158" y="68"/>
      <point x="1106" y="152"/>
      <point x="1037" y="262" type="curve" smooth="yes"/>
      <point x="897" y="481" type="line" smooth="yes"/>
      <point x="846" y="561"/>
      <point x="808" y="621"/>
      <point x="755" y="660" type="curve"/>
      <point x="1066" y="723"/>
      <point x="1140" y="909"/>
      <point x="1139" y="1069" type="curve" smooth="yes"/>
      <point x="1138" y="1296"/>
      <point x="977" y="1429"/>
      <point x="582" y="1436" type="curve" smooth="yes"/>
    </contour>
    <contour>
      <point x="826" y="1358"/>
      <point x="940" y="1253"/>
      <point x="940" y="1047" type="curve" smooth="yes"/>
      <point x="940" y="811"/>
      <point x="783" y="725"/>
      <point x="560" y="717" type="curve" smooth="yes"/>
      <point x="512" y="715"/>
      <point x="476" y="717"/>
      <point x="433" y="720" type="curve"/>
      <point x="433" y="1114" type="line" smooth="yes"/>
      <point x="433" y="1260"/>
      <point x="420" y="1358"/>
      <point x="574" y="1358" type="curve" smooth="yes"/>
    </contour>
    <contour>
      <point x="643" y="1434" type="move" name="top"/>
    </contour>
    <contour>
      <point x="684" y="0" type="move" name="bottom"/>
    </contour>
  </outline>
</glyph>
<glyph name="U" format="1">
  <advance width="1540"/>
  <unicode hex="0055"/>
  <outline>
    <contour>
      <point x="1097" y="1434" type="line"/>
      <point x="1097" y="1343" type="line"/>
      <point x="1244" y="1352" type="line"/>
      <point x="1240" y="1311"/>
      <point x="1238" y="1260"/>
      <point x="1238" y="1204" type="curve" smooth="yes"/>
      <point x="1230" y="629" type="line" smooth="yes"/>
      <point x="1226" y="309"/>
      <point x="1101" y="84"/>
      <point x="806" y="84" type="curve" smooth="yes"/>
      <point x="439" y="84"/>
      <point x="382" y="383"/>
      <point x="382" y="688" type="curve" smooth="yes"/>
      <point x="382" y="1204" type="line" smooth="yes"/>
      <point x="382" y="1260"/>
      <point x="384" y="1366"/>
      <point x="523" y="1366" type="curve"/>
      <point x="523" y="1434" type="line"/>
      <point x="63" y="1434" type="line"/>
      <point x="63" y="1346" type="line"/>
      <point x="210" y="1352" type="line"/>
      <point x="206" y="1298"/>
      <point x="202" y="1186"/>
      <point x="202" y="1114" type="curve" smooth="yes"/>
      <point x="202" y="698" type="line" smooth="yes"/>
      <point x="202" y="192"/>
      <point x="343" y="-33"/>
      <point x="781" y="-33" type="curve" smooth="yes"/>
      <point x="1191" y="-33"/>
      <point x="1330" y="283"/>
      <point x="1332" y="639" type="curve" smooth="yes"/>
      <point x="1336" y="1114" type="line" smooth="yes"/>
      <point x="1336" y="1260"/>
      <point x="1324" y="1360"/>
      <point x="1478" y="1366" type="curve"/>
      <point x="1478" y="1434" type="line"/>
    </contour>
    <contour>
      <point x="1018" y="11" type="move" name="ogonek"/>
    </contour>
    <contour>
      <point x="794" y="1434" type="move" name="top"/>
    </contour>
  </outline>
</glyph>
<glyph name="W" format="1">
  <advance width="2038"/>
  <unicode hex="0057"/>
  <outline>
    <contour>
      <point x="1013" y="1438" type="line"/>
      <point x="978" y="1315"/>
      <point x="857" y="956"/>
      <point x="741" y="592" type="curve" smooth="yes"/>
      <point x="722" y="537"/>
      <point x="685" y="414"/>
      <point x="657" y="322" type="curve"/>
      <point x="653" y="322" type="line"/>
      <point x="612" y="451"/>
      <point x="573" y="543"/>
      <point x="534" y="666" type="curve" smooth="yes"/>
      <point x="481" y="831"/>
      <point x="427" y="963"/>
      <point x="378" y="1143" type="curve" smooth="yes"/>
      <point x="333" y="1307"/>
      <point x="352" y="1358"/>
      <point x="511" y="1366" type="curve"/>
      <point x="511" y="1434" type="line"/>
      <point x="14" y="1434" type="line"/>
      <point x="14" y="1343" type="line"/>
      <point x="130" y="1348" type="line"/>
      <point x="141" y="1286"/>
      <point x="167" y="1212"/>
      <point x="216" y="1069" type="curve" smooth="yes"/>
      <point x="581" y="-20" type="line"/>
      <point x="640" y="-20" type="line"/>
      <point x="1001" y="1075" type="line"/>
      <point x="1384" y="-20" type="line"/>
      <point x="1445" y="-20" type="line"/>
      <point x="1574" y="334"/>
      <point x="1689" y="692"/>
      <point x="1814" y="1063" type="curve" smooth="yes"/>
      <point x="1900" y="1315"/>
      <point x="1929" y="1350"/>
      <point x="2068" y="1366" type="curve"/>
      <point x="2068" y="1434" type="line"/>
      <point x="1652" y="1434" type="line"/>
      <point x="1652" y="1343" type="line"/>
      <point x="1816" y="1350" type="line"/>
      <point x="1790" y="1303"/>
      <point x="1769" y="1245"/>
      <point x="1754" y="1200" type="curve" smooth="yes"/>
      <point x="1711" y="1073"/>
      <point x="1683" y="967"/>
      <point x="1543" y="561" type="curve" smooth="yes"/>
      <point x="1511" y="468"/>
      <point x="1482" y="376"/>
      <point x="1458" y="297" type="curve"/>
      <point x="1453" y="297" type="line"/>
      <point x="1415" y="426"/>
      <point x="1371" y="543"/>
      <point x="1333" y="666" type="curve" smooth="yes"/>
      <point x="1279" y="831"/>
      <point x="1130" y="1257"/>
      <point x="1079" y="1438" type="curve"/>
    </contour>
    <contour>
      <point x="1050" y="1434" type="move" name="top"/>
    </contour>
  </outline>
</glyph>
<glyph name="b" format="1">
  <advance width="1192"/>
  <unicode hex="0062"/>
  <outline>
    <contour>
      <point x="272" y="1546" type="line"/>
      <point x="241" y="1518"/>
      <point x="196" y="1491"/>
      <point x="16" y="1491" type="curve"/>
      <point x="16" y="1405" type="line"/>
      <point x="161" y="1413" type="line"/>
      <point x="155" y="1358"/>
      <point x="155" y="1323"/>
      <point x="155" y="1280" type="curve" smooth="yes"/>
      <point x="151" y="0" type="line"/>
      <point x="223" y="0" type="line"/>
      <point x="272" y="92" type="line"/>
      <point x="358" y="-6"/>
      <point x="481" y="-33"/>
      <point x="573" y="-33" type="curve" smooth="yes"/>
      <point x="849" y="-33"/>
      <point x="1105" y="187"/>
      <point x="1105" y="536" type="curve" smooth="yes"/>
      <point x="1105" y="857"/>
      <point x="903" y="1057"/>
      <point x="642" y="1057" type="curve" smooth="yes"/>
      <point x="514" y="1057"/>
      <point x="407" y="1011"/>
      <point x="331" y="935" type="curve"/>
      <point x="331" y="1546" type="line"/>
    </contour>
    <contour>
      <point x="792" y="956"/>
      <point x="894" y="761"/>
      <point x="894" y="486" type="curve" smooth="yes"/>
      <point x="894" y="228"/>
      <point x="771" y="51"/>
      <point x="573" y="51" type="curve" smooth="yes"/>
      <point x="448" y="51"/>
      <point x="331" y="104"/>
      <point x="331" y="322" type="curve" smooth="yes"/>
      <point x="331" y="840" type="line"/>
      <point x="394" y="910"/>
      <point x="489" y="956"/>
      <point x="579" y="956" type="curve" smooth="yes"/>
    </contour>
  </outline>
</glyph>
<glyph name="d" format="1">
  <advance width="1225"/>
  <unicode hex="0064"/>
  <outline>
    <contour>
      <point x="967" y="1546" type="line"/>
      <point x="936" y="1518"/>
      <point x="893" y="1491"/>
      <point x="713" y="1491" type="curve"/>
      <point x="713" y="1405" type="line"/>
      <point x="858" y="1413" type="line"/>
      <point x="852" y="1358"/>
      <point x="852" y="1323"/>
      <point x="852" y="1280" type="curve" smooth="yes"/>
      <point x="851" y="1000" type="line"/>
      <point x="798" y="1029"/>
      <point x="703" y="1057"/>
      <point x="612" y="1057" type="curve" smooth="yes"/>
      <point x="308" y="1057"/>
      <point x="86" y="817"/>
      <point x="86" y="483" type="curve" smooth="yes"/>
      <point x="86" y="166"/>
      <point x="276" y="-33"/>
      <point x="528" y="-33" type="curve" smooth="yes"/>
      <point x="664" y="-33"/>
      <point x="779" y="22"/>
      <point x="857" y="107" type="curve"/>
      <point x="859" y="74"/>
      <point x="863" y="40"/>
      <point x="870" y="0" type="curve"/>
      <point x="1163" y="0" type="line"/>
      <point x="1163" y="86" type="line"/>
      <point x="1018" y="78" type="line"/>
      <point x="1024" y="133"/>
      <point x="1026" y="174"/>
      <point x="1026" y="217" type="curve" smooth="yes"/>
      <point x="1026" y="1546" type="line"/>
    </contour>
    <contour>
      <point x="706" y="976"/>
      <point x="786" y="955"/>
      <point x="851" y="905" type="curve"/>
      <point x="850" y="315" type="line" smooth="yes"/>
      <point x="850" y="272"/>
      <point x="850" y="235"/>
      <point x="851" y="202" type="curve"/>
      <point x="791" y="124"/>
      <point x="693" y="68"/>
      <point x="602" y="68" type="curve" smooth="yes"/>
      <point x="410" y="68"/>
      <point x="305" y="250"/>
      <point x="297" y="502" type="curve" smooth="yes"/>
      <point x="287" y="786"/>
      <point x="420" y="976"/>
      <point x="625" y="976" type="curve" smooth="yes"/>
    </contour>
    <contour>
      <point x="613" y="512" type="move" name="center"/>
    </contour>
    <contour>
      <point x="1205" y="1024" type="move" name="topright"/>
    </contour>
  </outline>
</glyph>
<glyph name="l" format="1">
  <advance width="557"/>
  <unicode hex="006C"/>
  <outline>
    <contour>
      <point x="307" y="1546" type="line"/>
      <point x="276" y="1518"/>
      <point x="231" y="1491"/>
      <point x="51" y="1491" type="curve"/>
      <point x="51" y="1405" type="line"/>
      <point x="196" y="1413" type="line"/>
      <point x="190" y="1358"/>
      <point x="190" y="1323"/>
      <point x="190" y="1280" type="curve" smooth="yes"/>
      <point x="190" y="311" type="line" smooth="yes"/>
      <point x="190" y="164"/>
      <point x="194" y="61"/>
      <point x="69" y="61" type="curve"/>
      <point x="69" y="0" type="line"/>
      <point x="487" y="0" type="line"/>
      <point x="487" y="84" type="line"/>
      <point x="358" y="78" type="line"/>
      <point x="366" y="125"/>
      <point x="368" y="162"/>
      <point x="368" y="217" type="curve" smooth="yes"/>
      <point x="366" y="1546" type="line"/>
    </contour>
    <contour>
      <point x="279" y="1437" type="move" name="top"/>
    </contour>
    <contour>
      <point x="279" y="0" type="move" name="bottom"/>
    </contour>
    <contour>
      <point x="537" y="1024" type="move" name="topright"/>
    </contour>
  </outline>
</glyph>
<glyph name="o" format="1">
  <advance width="1198"/>
  <unicode hex="006F"/>
  <outline>
    <contour>
      <point x="307" y="1057"/>
      <point x="84" y="811"/>
      <point x="84" y="487" type="curve" smooth="yes"/>
      <point x="84" y="184"/>
      <point x="311" y="-33"/>
      <point x="598" y="-33" type="curve" smooth="yes"/>
      <point x="889" y="-33"/>
      <point x="1114" y="219"/>
      <point x="1114" y="537" type="curve" smooth="yes"/>
      <point x="1114" y="834"/>
      <point x="885" y="1057"/>
      <point x="598" y="1057" type="curve" smooth="yes"/>
    </contour>
    <contour>
      <point x="817" y="979"/>
      <point x="905" y="723"/>
      <point x="905" y="477" type="curve" smooth="yes"/>
      <point x="905" y="260"/>
      <point x="829" y="49"/>
      <point x="614" y="49" type="curve" smooth="yes"/>
      <point x="397" y="49"/>
      <point x="293" y="293"/>
      <point x="293" y="547" type="curve" smooth="yes"/>
      <point x="293" y="770"/>
      <point x="383" y="979"/>
      <point x="598" y="979" type="curve" smooth="yes"/>
    </contour>
    <contour>
      <point x="599" y="1024" type="move" name="top"/>
    </contour>
  </outline>
</glyph>
<glyph name="z" format="1">
  <advance width="1047"/>
  <unicode hex="007A"/>
  <outline>
    <contour>
      <point x="137" y="1024" type="line"/>
      <point x="113" y="657" type="line"/>
      <point x="176" y="657" type="line"/>
      <point x="199" y="815"/>
      <point x="232" y="944"/>
      <point x="385" y="946" type="curve" smooth="yes"/>
      <point x="770" y="952" type="line"/>
      <point x="744" y="936"/>
      <point x="696" y="874"/>
      <point x="653" y="819" type="curve" smooth="yes"/>
      <point x="82" y="84" type="line"/>
      <point x="82" y="0" type="line"/>
      <point x="932" y="0" type="line"/>
      <point x="957" y="373" type="line"/>
      <point x="897" y="373" type="line"/>
      <point x="873" y="209"/>
      <point x="821" y="76"/>
      <point x="651" y="78" type="curve" smooth="yes"/>
      <point x="256" y="84" type="line"/>
      <point x="307" y="127"/>
      <point x="328" y="154"/>
      <point x="363" y="199" type="curve" smooth="yes"/>
      <point x="940" y="958" type="line"/>
      <point x="940" y="1024" type="line"/>
    </contour>
    <contour>
      <point x="545" y="1024" type="move" name="top"/>
    </contour>
  </outline>
</glyph>
<glyph name="braceleft" format="1">
  <advance width="684"/>
  <unicode hex="007B"/>
  <outline>
    <contour>
      <point x="602" y="1556" type="line" smooth="yes"/>
      <point x="321" y="1556"/>
      <point x="237" y="1423"/>
      <point x="237" y="1134" type="curve" smooth="yes"/>
      <point x="237" y="1013"/>
      <point x="258" y="897"/>
      <point x="258" y="791" type="curve" smooth="yes"/>
      <point x="258" y="651"/>
      <point x="213" y="592"/>
      <point x="61" y="592" type="curve" smooth="yes"/>
      <point x="14" y="592" type="line"/>
      <point x="14" y="486" type="line"/>
      <point x="61" y="486" type="line" smooth="yes"/>
      <point x="213" y="486"/>
      <point x="258" y="418"/>
      <point x="258" y="279" type="curve" smooth="yes"/>
      <point x="258" y="172"/>
      <point x="237" y="4"/>
      <point x="237" y="-117" type="curve" smooth="yes"/>
      <point x="237" y="-405"/>
      <point x="321" y="-555"/>
      <point x="602" y="-555" type="curve" smooth="yes"/>
      <point x="659" y="-555" type="line"/>
      <point x="659" y="-498" type="line"/>
      <point x="448" y="-504"/>
      <point x="395" y="-379"/>
      <point x="395" y="-145" type="curve" smooth="yes"/>
      <point x="395" y="-53"/>
      <point x="422" y="160"/>
      <point x="422" y="256" type="curve" smooth="yes"/>
      <point x="422" y="426"/>
      <point x="309" y="514"/>
      <point x="192" y="537" type="curve"/>
      <point x="192" y="541" type="line"/>
      <point x="309" y="563"/>
      <point x="422" y="643"/>
      <point x="422" y="813" type="curve" smooth="yes"/>
      <point x="422" y="909"/>
      <point x="395" y="1071"/>
      <point x="395" y="1163" type="curve" smooth="yes"/>
      <point x="395" y="1396"/>
      <point x="448" y="1493"/>
      <point x="659" y="1486" type="curve"/>
      <point x="659" y="1556" type="line"/>
    </contour>
  </outline>
</glyph>
<glyph name="currency" format="1">
  <advance width="1096"/>
  <unicode hex="00A4"/>
  <outline>
    <contour>
      <point x="309" y="918"/>
      <point x="172" y="712"/>
      <point x="172" y="521" type="curve" smooth="yes"/>
      <point x="172" y="324"/>
      <point x="304" y="138"/>
      <point x="548" y="138" type="curve" smooth="yes"/>
      <point x="792" y="138"/>
      <point x="926" y="324"/>
      <point x="926" y="521" type="curve" smooth="yes"/>
      <point x="926" y="712"/>
      <point x="789" y="918"/>
      <point x="549" y="918" type="curve" smooth="yes"/>
    </contour>
    <contour>
      <point x="125" y="148" type="line"/>
      <point x="208" y="82" type="line"/>
      <point x="374" y="290" type="line"/>
      <point x="301" y="348" type="line"/>
    </contour>
    <contour>
      <point x="724" y="290" type="line"/>
      <point x="890" y="82" type="line"/>
      <point x="973" y="148" type="line"/>
      <point x="797" y="348" type="line"/>
    </contour>
    <contour>
      <point x="703" y="845"/>
      <point x="750" y="658"/>
      <point x="750" y="554" type="curve" smooth="yes"/>
      <point x="750" y="423"/>
      <point x="711" y="218"/>
      <point x="549" y="218" type="curve" smooth="yes"/>
      <point x="387" y="218"/>
      <point x="348" y="423"/>
      <point x="348" y="554" type="curve" smooth="yes"/>
      <point x="348" y="658"/>
      <point x="395" y="845"/>
      <point x="549" y="845" type="curve" smooth="yes"/>
    </contour>
    <contour>
      <point x="125" y="910" type="line"/>
      <point x="301" y="710" type="line"/>
      <point x="374" y="768" type="line"/>
      <point x="208" y="976" type="line"/>
    </contour>
    <contour>
      <point x="724" y="768" type="line"/>
      <point x="797" y="710" type="line"/>
      <point x="973" y="910" type="line"/>
      <point x="890" y="976" type="line"/>
    </contour>
  </outline>
</glyph>
<glyph name="copyright" format="1">
  <advance width="1796"/>
  <unicode hex="00A9"/>
  <outline>
    <contour>
      <point x="430" y="1536"/>
      <point x="90" y="1165"/>
      <point x="90" y="713" type="curve" smooth="yes"/>
      <point x="90" y="242"/>
      <point x="412" y="-102"/>
      <point x="897" y="-102" type="curve" smooth="yes"/>
      <point x="1350" y="-102"/>
      <point x="1710" y="264"/>
      <point x="1710" y="713" type="curve" smooth="yes"/>
      <point x="1710" y="1165"/>
      <point x="1377" y="1536"/>
      <point x="901" y="1536" type="curve" smooth="yes"/>
    </contour>
    <contour>
      <point x="586" y="1227"/>
      <point x="414" y="950"/>
      <point x="414" y="709" type="curve" smooth="yes"/>
      <point x="414" y="428"/>
      <point x="627" y="209"/>
      <point x="910" y="209" type="curve" smooth="yes"/>
      <point x="1026" y="209"/>
      <point x="1204" y="252"/>
      <point x="1325" y="418" type="curve"/>
      <point x="1264" y="489" type="line"/>
      <point x="1188" y="395"/>
      <point x="1059" y="338"/>
      <point x="969" y="338" type="curve" smooth="yes"/>
      <point x="754" y="338"/>
      <point x="606" y="506"/>
      <point x="606" y="733" type="curve" smooth="yes"/>
      <point x="606" y="985"/>
      <point x="768" y="1116"/>
      <point x="924" y="1116" type="curve" smooth="yes"/>
      <point x="1065" y="1116"/>
      <point x="1174" y="1051"/>
      <point x="1196" y="872" type="curve"/>
      <point x="1278" y="872" type="line"/>
      <point x="1278" y="1217" type="line"/>
      <point x="1176" y="1217" type="line"/>
      <point x="1183" y="1143" type="line"/>
      <point x="1113" y="1193"/>
      <point x="1016" y="1227"/>
      <point x="916" y="1227" type="curve" smooth="yes"/>
    </contour>
    <contour>
      <point x="1303" y="1436"/>
      <point x="1575" y="1092"/>
      <point x="1575" y="713" type="curve" smooth="yes"/>
      <point x="1575" y="336"/>
      <point x="1311" y="0"/>
      <point x="903" y="0" type="curve" smooth="yes"/>
      <point x="484" y="0"/>
      <point x="228" y="336"/>
      <point x="228" y="713" type="curve" smooth="yes"/>
      <point x="228" y="1092"/>
      <point x="496" y="1436"/>
      <point x="897" y="1436" type="curve" smooth="yes"/>
    </contour>
  </outline>
</glyph>
<glyph name="registered" format="1">
  <advance width="1798"/>
  <unicode hex="00AE"/>
  <outline>
    <contour>
      <point x="428" y="1536"/>
      <point x="90" y="1167"/>
      <point x="90" y="713" type="curve" smooth="yes"/>
      <point x="90" y="238"/>
      <point x="410" y="-102"/>
      <point x="897" y="-102" type="curve" smooth="yes"/>
      <point x="1352" y="-102"/>
      <point x="1710" y="260"/>
      <point x="1710" y="713" type="curve" smooth="yes"/>
      <point x="1710" y="1167"/>
      <point x="1381" y="1536"/>
      <point x="901" y="1536" type="curve" smooth="yes"/>
    </contour>
    <contour>
      <point x="1305" y="1436"/>
      <point x="1575" y="1094"/>
      <point x="1575" y="713" type="curve" smooth="yes"/>
      <point x="1575" y="334"/>
      <point x="1313" y="2"/>
      <point x="903" y="2" type="curve" smooth="yes"/>
      <point x="482" y="2"/>
      <point x="230" y="334"/>
      <point x="230" y="713" type="curve" smooth="yes"/>
      <point x="230" y="1094"/>
      <point x="494" y="1436"/>
      <point x="897" y="1436" type="curve" smooth="yes"/>
    </contour>
    <contour>
      <point x="789" y="1231"/>
      <point x="615" y="1225"/>
      <point x="514" y="1221" type="curve"/>
      <point x="514" y="1135" type="line"/>
      <point x="617" y="1145" type="line"/>
      <point x="613" y="1118"/>
      <point x="613" y="1083"/>
      <point x="613" y="1047" type="curve" smooth="yes"/>
      <point x="613" y="512" type="line" smooth="yes"/>
      <point x="613" y="416"/>
      <point x="615" y="350"/>
      <point x="514" y="348" type="curve"/>
      <point x="514" y="279" type="line"/>
      <point x="862" y="279" type="line"/>
      <point x="858" y="360" type="line"/>
      <point x="760" y="356" type="line"/>
      <point x="762" y="381"/>
      <point x="764" y="414"/>
      <point x="764" y="461" type="curve" smooth="yes"/>
      <point x="764" y="662" type="line"/>
      <point x="787" y="659"/>
      <point x="849" y="657"/>
      <point x="876" y="661" type="curve"/>
      <point x="917" y="601"/>
      <point x="972" y="517"/>
      <point x="1030" y="434" type="curve" smooth="yes"/>
      <point x="1096" y="340"/>
      <point x="1143" y="281"/>
      <point x="1184" y="270" type="curve"/>
      <point x="1362" y="270" type="line"/>
      <point x="1362" y="340" type="line"/>
      <point x="1303" y="340"/>
      <point x="1264" y="365"/>
      <point x="1110" y="596" type="curve" smooth="yes"/>
      <point x="1076" y="645"/>
      <point x="1046" y="669"/>
      <point x="1023" y="680" type="curve"/>
      <point x="1023" y="682" type="line"/>
      <point x="1214" y="735"/>
      <point x="1272" y="867"/>
      <point x="1272" y="958" type="curve" smooth="yes"/>
      <point x="1272" y="1100"/>
      <point x="1157" y="1223"/>
      <point x="893" y="1229" type="curve" smooth="yes"/>
    </contour>
    <contour>
      <point x="985" y="1151"/>
      <point x="1112" y="1085"/>
      <point x="1112" y="952" type="curve" smooth="yes"/>
      <point x="1112" y="801"/>
      <point x="963" y="750"/>
      <point x="867" y="745" type="curve" smooth="yes"/>
      <point x="832" y="743"/>
      <point x="799" y="745"/>
      <point x="766" y="748" type="curve" smooth="yes"/>
      <point x="764" y="748" type="line"/>
      <point x="764" y="969" type="line" smooth="yes"/>
      <point x="764" y="1067"/>
      <point x="760" y="1130"/>
      <point x="860" y="1141" type="curve" smooth="yes"/>
    </contour>
  </outline>
</glyph>
<glyph name="degree" format="1">
  <advance width="829"/>
  <unicode hex="00B0"/>
  <outline>
    <contour>
      <point x="243" y="1467"/>
      <point x="96" y="1326"/>
      <point x="96" y="1148" type="curve" smooth="yes"/>
      <point x="96" y="970"/>
      <point x="219" y="828"/>
      <point x="411" y="828" type="curve" smooth="yes"/>
      <point x="585" y="828"/>
      <point x="733" y="970"/>
      <point x="733" y="1148" type="curve" smooth="yes"/>
      <point x="733" y="1326"/>
      <point x="610" y="1467"/>
      <point x="417" y="1467" type="curve" smooth="yes"/>
    </contour>
    <contour>
      <point x="528" y="1365"/>
      <point x="604" y="1260"/>
      <point x="604" y="1148" type="curve" smooth="yes"/>
      <point x="604" y="1035"/>
      <point x="528" y="933"/>
      <point x="415" y="933" type="curve" smooth="yes"/>
      <point x="301" y="933"/>
      <point x="225" y="1035"/>
      <point x="225" y="1148" type="curve" smooth="yes"/>
      <point x="225" y="1260"/>
      <point x="301" y="1365"/>
      <point x="413" y="1365" type="curve" smooth="yes"/>
    </contour>
  </outline>
</glyph>
<glyph name="paragraph" format="1">
  <advance width="1026"/>
  <unicode hex="00B6"/>
  <outline>
    <contour>
      <point x="359" y="1434" type="line" smooth="yes"/>
      <point x="213" y="1434"/>
      <point x="68" y="1332"/>
      <point x="68" y="1136" type="curve" smooth="yes"/>
      <point x="68" y="926"/>
      <point x="221" y="847"/>
      <point x="357" y="837" type="curve"/>
      <point x="352" y="-522" type="line"/>
      <point x="496" y="-522" type="line"/>
      <point x="501" y="1344" type="line"/>
      <point x="680" y="1350" type="line"/>
      <point x="676" y="-522" type="line"/>
      <point x="819" y="-522" type="line"/>
      <point x="823" y="1434" type="line"/>
    </contour>
  </outline>
</glyph>
<glyph name="Oslash" format="1">
  <advance width="1626"/>
  <unicode hex="00D8"/>
  <outline>
    <contour>
      <point x="297" y="-102" type="line"/>
      <point x="395" y="-164" type="line"/>
      <point x="1362" y="1477" type="line"/>
      <point x="1251" y="1546" type="line"/>
    </contour>
    <component base="O" xOffset="-2"/>
  </outline>
</glyph>
<glyph name="dcroat" format="1">
  <advance width="1225"/>
  <unicode hex="0111"/>
  <outline>
    <contour>
      <point x="522" y="1286" type="line"/>
      <point x="522" y="1193" type="line"/>
      <point x="1185" y="1201" type="line"/>
      <point x="1185" y="1286" type="line"/>
    </contour>
    <component base="d"/>
  </outline>
</glyph>
<glyph name="OE" format="1">
  <advance width="2093"/>
  <unicode hex="0152"/>
  <outline>
    <contour>
      <point x="318" y="1455"/>
      <point x="94" y="1059"/>
      <point x="94" y="674" type="curve" smooth="yes"/>
      <point x="94" y="266"/>
      <point x="356" y="-33"/>
      <point x="788" y="-33" type="curve" smooth="yes"/>
      <point x="868" y="-33"/>
      <point x="964" y="-23"/>
      <point x="1073" y="0" type="curve"/>
      <point x="1988" y="0" type="line"/>
      <point x="2001" y="399" type="line"/>
      <point x="1931" y="399" type="line"/>
      <point x="1931" y="156"/>
      <point x="1816" y="70"/>
      <point x="1638" y="76" type="curve" smooth="yes"/>
      <point x="1245" y="88" type="line"/>
      <point x="1249" y="123"/>
      <point x="1251" y="174"/>
      <point x="1251" y="248" type="curve" smooth="yes"/>
      <point x="1251" y="702" type="line"/>
      <point x="1405" y="711" type="line" smooth="yes"/>
      <point x="1579" y="717"/>
      <point x="1649" y="711"/>
      <point x="1649" y="530" type="curve"/>
      <point x="1716" y="530" type="line"/>
      <point x="1716" y="961" type="line"/>
      <point x="1625" y="961" type="line"/>
      <point x="1640" y="784" type="line"/>
      <point x="1251" y="784" type="line"/>
      <point x="1251" y="1114" type="line" smooth="yes"/>
      <point x="1251" y="1280"/>
      <point x="1253" y="1354"/>
      <point x="1407" y="1358" type="curve" smooth="yes"/>
      <point x="1583" y="1362" type="line" smooth="yes"/>
      <point x="1737" y="1366"/>
      <point x="1859" y="1317"/>
      <point x="1859" y="1075" type="curve"/>
      <point x="1927" y="1075" type="line"/>
      <point x="1917" y="1434" type="line"/>
      <point x="1073" y="1434" type="line"/>
      <point x="992" y="1453"/>
      <point x="890" y="1467"/>
      <point x="814" y="1467" type="curve" smooth="yes"/>
    </contour>
    <contour>
      <point x="899" y="1381"/>
      <point x="995" y="1368"/>
      <point x="1073" y="1333" type="curve"/>
      <point x="1073" y="98" type="line"/>
      <point x="991" y="76"/>
      <point x="924" y="66"/>
      <point x="848" y="66" type="curve" smooth="yes"/>
      <point x="524" y="66"/>
      <point x="299" y="317"/>
      <point x="295" y="705" type="curve" smooth="yes"/>
      <point x="291" y="1126"/>
      <point x="528" y="1381"/>
      <point x="819" y="1381" type="curve" smooth="yes"/>
    </contour>
  </outline>
</glyph>
<glyph name="breve" format="1">
  <advance width="743"/>
  <unicode hex="02D8"/>
  <outline>
    <contour>
      <point x="557" y="1434"/>
      <point x="469" y="1362"/>
      <point x="375" y="1362" type="curve" smooth="yes"/>
      <point x="281" y="1362"/>
      <point x="193" y="1430"/>
      <point x="152" y="1505" type="curve"/>
      <point x="92" y="1475" type="line"/>
      <point x="143" y="1313"/>
      <point x="262" y="1237"/>
      <point x="369" y="1237" type="curve" smooth="yes"/>
      <point x="496" y="1237"/>
      <point x="592" y="1321"/>
      <point x="651" y="1485" type="curve"/>
      <point x="596" y="1509" type="line"/>
    </contour>
    <contour>
      <point x="372" y="1024" type="move" name="_top"/>
    </contour>
  </outline>
</glyph>
<glyph name="tilde" format="1">
  <advance width="831"/>
  <unicode hex="02DC"/>
  <outline>
    <contour>
      <point x="205" y="1487"/>
      <point x="106" y="1409"/>
      <point x="72" y="1313" type="curve"/>
      <point x="133" y="1278" type="line"/>
      <point x="172" y="1339"/>
      <point x="233" y="1364"/>
      <point x="283" y="1364" type="curve" smooth="yes"/>
      <point x="358" y="1364"/>
      <point x="424" y="1253"/>
      <point x="551" y="1253" type="curve" smooth="yes"/>
      <point x="623" y="1253"/>
      <point x="715" y="1313"/>
      <point x="760" y="1448" type="curve"/>
      <point x="700" y="1479" type="line"/>
      <point x="668" y="1419"/>
      <point x="610" y="1380"/>
      <point x="551" y="1380" type="curve" smooth="yes"/>
      <point x="461" y="1380"/>
      <point x="410" y="1493"/>
      <point x="281" y="1489" type="curve" smooth="yes"/>
    </contour>
    <contour>
      <point x="416" y="1024" type="move" name="_top"/>
    </contour>
  </outline>
</glyph>
<glyph name="commaaccent" format="1">
  <advance width="600"/>
  <unicode hex="0326"/>
  <outline>
    <contour>
      <point x="238" y="-123" type="line"/>
      <point x="275" y="-237"/>
      <point x="281" y="-328"/>
      <point x="192" y="-491" type="curve"/>
      <point x="246" y="-531" type="line"/>
      <point x="349" y="-428"/>
      <point x="411" y="-318"/>
      <point x="411" y="-212" type="curve" smooth="yes"/>
      <point x="411" y="-168"/>
      <point x="401" y="-124"/>
      <point x="378" y="-82" type="curve"/>
    </contour>
    <contour>
      <point x="321" y="0" type="move" name="_bottom"/>
    </contour>
  </outline>
</glyph>
<glyph name="pi" format="1">
  <advance width="1186"/>
  <unicode hex="03C0"/>
  <outline>
    <contour>
      <point x="1007" y="1019"/>
      <point x="954" y="1010"/>
      <point x="884" y="1010" type="curve" smooth="yes"/>
      <point x="769" y="1010"/>
      <point x="565" y="1049"/>
      <point x="354" y="1049" type="curve" smooth="yes"/>
      <point x="225" y="1049"/>
      <point x="137" y="980"/>
      <point x="79" y="910" type="curve"/>
      <point x="112" y="865" type="line"/>
      <point x="183" y="899"/>
      <point x="230" y="909"/>
      <point x="335" y="910" type="curve"/>
      <point x="335" y="692"/>
      <point x="342" y="155"/>
      <point x="212" y="114" type="curve"/>
      <point x="190" y="135"/>
      <point x="162" y="145"/>
      <point x="136" y="145" type="curve" smooth="yes"/>
      <point x="104" y="145"/>
      <point x="51" y="123"/>
      <point x="51" y="58" type="curve" smooth="yes"/>
      <point x="51" y="-3"/>
      <point x="97" y="-33"/>
      <point x="149" y="-33" type="curve" smooth="yes"/>
      <point x="241" y="-33"/>
      <point x="327" y="30"/>
      <point x="368" y="147" type="curve" smooth="yes"/>
      <point x="422" y="304"/>
      <point x="419" y="685"/>
      <point x="419" y="907" type="curve"/>
      <point x="530" y="900"/>
      <point x="639" y="880"/>
      <point x="771" y="873" type="curve"/>
      <point x="771" y="709"/>
      <point x="767" y="197"/>
      <point x="767" y="180" type="curve" smooth="yes"/>
      <point x="767" y="104"/>
      <point x="790" y="-33"/>
      <point x="935" y="-33" type="curve" smooth="yes"/>
      <point x="1013" y="-33"/>
      <point x="1093" y="22"/>
      <point x="1128" y="69" type="curve"/>
      <point x="1103" y="102" type="line"/>
      <point x="1079" y="85"/>
      <point x="1052" y="77"/>
      <point x="1034" y="77" type="curve" smooth="yes"/>
      <point x="976" y="77"/>
      <point x="946" y="126"/>
      <point x="946" y="268" type="curve" smooth="yes"/>
      <point x="948" y="885" type="line"/>
      <point x="1030" y="913"/>
      <point x="1088" y="975"/>
      <point x="1118" y="1014" type="curve"/>
      <point x="1083" y="1057" type="line"/>
    </contour>
  </outline>
</glyph>
<glyph name="Lje-cy" format="1">
  <advance width="1956"/>
  <unicode hex="0409"/>
  <outline>
    <contour>
      <point x="1527" y="761"/>
      <point x="1693" y="689"/>
      <point x="1693" y="429" type="curve" smooth="yes"/>
      <point x="1693" y="184"/>
      <point x="1551" y="78"/>
      <point x="1340" y="78" type="curve" smooth="yes"/>
      <point x="1314" y="78"/>
      <point x="1237" y="76"/>
      <point x="1173" y="82" type="curve"/>
      <point x="1178" y="117"/>
      <point x="1180" y="168"/>
      <point x="1180" y="242" type="curve" smooth="yes"/>
      <point x="1180" y="755" type="line"/>
      <point x="1245" y="759"/>
      <point x="1259" y="761"/>
      <point x="1340" y="761" type="curve" smooth="yes"/>
    </contour>
    <contour>
      <point x="499" y="1434" type="line"/>
      <point x="499" y="1087" type="line" smooth="yes"/>
      <point x="499" y="444"/>
      <point x="343" y="51"/>
      <point x="229" y="51" type="curve" smooth="yes"/>
      <point x="216" y="51"/>
      <point x="206" y="56"/>
      <point x="194" y="67" type="curve"/>
      <point x="210" y="84"/>
      <point x="212" y="97"/>
      <point x="212" y="122" type="curve" smooth="yes"/>
      <point x="212" y="163"/>
      <point x="182" y="217"/>
      <point x="115" y="214" type="curve" smooth="yes"/>
      <point x="56" y="211"/>
      <point x="25" y="161"/>
      <point x="25" y="106" type="curve" smooth="yes"/>
      <point x="25" y="16"/>
      <point x="104" y="-33"/>
      <point x="203" y="-33" type="curve" smooth="yes"/>
      <point x="520" y="-33"/>
      <point x="599" y="593"/>
      <point x="597" y="1191" type="curve" smooth="yes"/>
      <point x="597" y="1434" type="line"/>
    </contour>
    <contour>
      <point x="536" y="1352" type="line"/>
      <point x="523" y="1289" type="line"/>
      <point x="597" y="1236" type="line"/>
      <point x="602" y="1305"/>
      <point x="641" y="1353"/>
      <point x="735" y="1353" type="curve"/>
    </contour>
    <contour>
      <point x="1180" y="834" type="line"/>
      <point x="1180" y="1114" type="line" smooth="yes"/>
      <point x="1180" y="1260"/>
      <point x="1169" y="1360"/>
      <point x="1320" y="1366" type="curve"/>
      <point x="1320" y="1434" type="line"/>
      <point x="308" y="1434" type="line"/>
      <point x="308" y="1343" type="line"/>
      <point x="456" y="1352" type="line"/>
      <point x="1001" y="1352" type="line"/>
      <point x="1001" y="319" type="line" smooth="yes"/>
      <point x="1001" y="171"/>
      <point x="1010" y="72"/>
      <point x="860" y="68" type="curve"/>
      <point x="860" y="0" type="line"/>
      <point x="1408" y="0" type="line" smooth="yes"/>
      <point x="1685" y="0"/>
      <point x="1891" y="149"/>
      <point x="1891" y="437" type="curve" smooth="yes"/>
      <point x="1891" y="678"/>
      <point x="1745" y="859"/>
      <point x="1295" y="839" type="curve" smooth="yes"/>
    </contour>
  </outline>
</glyph>
<glyph name="De-cy" format="1">
  <advance width="1416"/>
  <unicode hex="0414"/>
  <outline>
    <contour>
      <point x="275" y="1434" type="line"/>
      <point x="275" y="1343" type="line"/>
      <point x="423" y="1352" type="line"/>
      <point x="1002" y="1353" type="line"/>
      <point x="1002" y="319" type="line" smooth="yes"/>
      <point x="1002" y="174"/>
      <point x="1014" y="81"/>
      <point x="860" y="81" type="curve"/>
      <point x="860" y="0" type="line"/>
      <point x="1321" y="0" type="line"/>
      <point x="1321" y="81" type="line"/>
      <point x="1174" y="81" type="line"/>
      <point x="1178" y="116"/>
      <point x="1180" y="170"/>
      <point x="1180" y="244" type="curve" smooth="yes"/>
      <point x="1180" y="1114" type="line" smooth="yes"/>
      <point x="1180" y="1260"/>
      <point x="1168" y="1360"/>
      <point x="1321" y="1366" type="curve"/>
      <point x="1321" y="1434" type="line"/>
    </contour>
    <contour>
      <point x="55" y="81" type="line"/>
      <point x="55" y="-364" type="line"/>
      <point x="140" y="-364" type="line"/>
      <point x="140" y="-130"/>
      <point x="175" y="0"/>
      <point x="310" y="0" type="curve" smooth="yes"/>
      <point x="1096" y="0" type="line" smooth="yes"/>
      <point x="1231" y="0"/>
      <point x="1266" y="-130"/>
      <point x="1266" y="-364" type="curve"/>
      <point x="1351" y="-364" type="line"/>
      <point x="1351" y="81" type="line"/>
    </contour>
    <contour>
      <point x="475" y="1434" type="line"/>
      <point x="463" y="906"/>
      <point x="454" y="435"/>
      <point x="306" y="200" type="curve" smooth="yes"/>
      <point x="258" y="125"/>
      <point x="201" y="81"/>
      <point x="134" y="81" type="curve"/>
      <point x="180" y="0" type="line"/>
      <point x="254" y="0"/>
      <point x="318" y="51"/>
      <point x="372" y="138" type="curve" smooth="yes"/>
      <point x="531" y="395"/>
      <point x="556" y="892"/>
      <point x="577" y="1434" type="curve"/>
    </contour>
    <contour>
      <point x="507" y="1353" type="line"/>
      <point x="494" y="1290" type="line"/>
      <point x="569" y="1246" type="line"/>
      <point x="571" y="1310"/>
      <point x="610" y="1353"/>
      <point x="706" y="1353" type="curve"/>
    </contour>
  </outline>
</glyph>
<glyph name="Zhe-cy" format="1">
  <advance width="1971"/>
  <unicode hex="0416"/>
  <outline>
    <contour>
      <point x="1501" y="596" type="line" smooth="yes"/>
      <point x="1450" y="678"/>
      <point x="1408" y="723"/>
      <point x="1331" y="770" type="curve"/>
      <point x="1517" y="1090" type="line" smooth="yes"/>
      <point x="1649" y="1318"/>
      <point x="1753" y="1352"/>
      <point x="1925" y="1366" type="curve"/>
      <point x="1925" y="1434" type="line"/>
      <point x="1485" y="1434" type="line"/>
      <point x="1485" y="1350" type="line"/>
      <point x="1610" y="1354" type="line"/>
      <point x="1553" y="1309"/>
      <point x="1496" y="1237"/>
      <point x="1464" y="1182" type="curve" smooth="yes"/>
      <point x="1228" y="778" type="line"/>
      <point x="1075" y="778" type="line"/>
      <point x="1075" y="1114" type="line" smooth="yes"/>
      <point x="1075" y="1260"/>
      <point x="1062" y="1360"/>
      <point x="1216" y="1366" type="curve"/>
      <point x="1216" y="1434" type="line"/>
      <point x="755" y="1434" type="line"/>
      <point x="755" y="1343" type="line"/>
      <point x="903" y="1352" type="line"/>
      <point x="898" y="1311"/>
      <point x="896" y="1260"/>
      <point x="896" y="1204" type="curve" smooth="yes"/>
      <point x="896" y="778" type="line"/>
      <point x="743" y="778" type="line"/>
      <point x="507" y="1182" type="line" smooth="yes"/>
      <point x="475" y="1237"/>
      <point x="418" y="1309"/>
      <point x="361" y="1354" type="curve"/>
      <point x="486" y="1350" type="line"/>
      <point x="486" y="1434" type="line"/>
      <point x="46" y="1434" type="line"/>
      <point x="46" y="1366" type="line"/>
      <point x="218" y="1352"/>
      <point x="322" y="1318"/>
      <point x="454" y="1090" type="curve" smooth="yes"/>
      <point x="640" y="770" type="line"/>
      <point x="563" y="723"/>
      <point x="520" y="678"/>
      <point x="470" y="596" type="curve" smooth="yes"/>
      <point x="292" y="305" type="line" smooth="yes"/>
      <point x="170" y="106"/>
      <point x="98" y="68"/>
      <point x="10" y="68" type="curve"/>
      <point x="10" y="0" type="line"/>
      <point x="230" y="0" type="line" smooth="yes"/>
      <point x="271" y="0"/>
      <point x="362" y="70"/>
      <point x="441" y="201" type="curve" smooth="yes"/>
      <point x="642" y="532" type="line" smooth="yes"/>
      <point x="680" y="595"/>
      <point x="712" y="649"/>
      <point x="774" y="698" type="curve"/>
      <point x="896" y="696" type="line"/>
      <point x="896" y="319" type="line" smooth="yes"/>
      <point x="896" y="174"/>
      <point x="909" y="74"/>
      <point x="755" y="68" type="curve"/>
      <point x="755" y="0" type="line"/>
      <point x="1216" y="0" type="line"/>
      <point x="1216" y="90" type="line"/>
      <point x="1068" y="82" type="line"/>
      <point x="1073" y="117"/>
      <point x="1075" y="170"/>
      <point x="1075" y="244" type="curve" smooth="yes"/>
      <point x="1075" y="696" type="line"/>
      <point x="1197" y="698" type="line"/>
      <point x="1259" y="649"/>
      <point x="1290" y="595"/>
      <point x="1329" y="532" type="curve" smooth="yes"/>
      <point x="1534" y="201" type="line" smooth="yes"/>
      <point x="1615" y="71"/>
      <point x="1710" y="0"/>
      <point x="1751" y="0" type="curve" smooth="yes"/>
      <point x="1961" y="0" type="line"/>
      <point x="1961" y="68" type="line"/>
      <point x="1873" y="68"/>
      <point x="1802" y="106"/>
      <point x="1680" y="305" type="curve" smooth="yes"/>
    </contour>
  </outline>
</glyph>
<glyph name="Pe-cy" format="1">
  <advance width="1557"/>
  <unicode hex="041F"/>
  <outline>
    <contour>
      <point x="113" y="1434" type="line"/>
      <point x="113" y="1343" type="line"/>
      <point x="261" y="1352" type="line"/>
      <point x="256" y="1311"/>
      <point x="254" y="1260"/>
      <point x="254" y="1204" type="curve" smooth="yes"/>
      <point x="254" y="319" type="line" smooth="yes"/>
      <point x="254" y="174"/>
      <point x="267" y="74"/>
      <point x="113" y="68" type="curve"/>
      <point x="113" y="0" type="line"/>
      <point x="574" y="0" type="line"/>
      <point x="574" y="90" type="line"/>
      <point x="426" y="82" type="line"/>
      <point x="431" y="117"/>
      <point x="433" y="170"/>
      <point x="433" y="244" type="curve" smooth="yes"/>
      <point x="433" y="1344" type="line"/>
      <point x="1126" y="1353" type="line"/>
      <point x="1126" y="319" type="line" smooth="yes"/>
      <point x="1126" y="174"/>
      <point x="1138" y="74"/>
      <point x="984" y="68" type="curve"/>
      <point x="984" y="0" type="line"/>
      <point x="1445" y="0" type="line"/>
      <point x="1445" y="90" type="line"/>
      <point x="1298" y="82" type="line"/>
      <point x="1302" y="117"/>
      <point x="1304" y="170"/>
      <point x="1304" y="244" type="curve" smooth="yes"/>
      <point x="1304" y="1114" type="line" smooth="yes"/>
      <point x="1304" y="1260"/>
      <point x="1292" y="1360"/>
      <point x="1445" y="1366" type="curve"/>
      <point x="1445" y="1434" type="line"/>
    </contour>
    <contour>
      <point x="353" y="1414" type="line"/>
      <point x="353" y="1157" type="line"/>
      <point x="433" y="1094" type="line"/>
      <point x="433" y="1240"/>
      <point x="420" y="1340"/>
      <point x="574" y="1346" type="curve"/>
      <point x="574" y="1414" type="line"/>
    </contour>
  </outline>
</glyph>
<glyph name="Che-cy" format="1">
  <advance width="1438"/>
  <unicode hex="0427"/>
  <outline>
    <contour>
      <point x="864" y="1434" type="line"/>
      <point x="864" y="1343" type="line"/>
      <point x="1012" y="1352" type="line"/>
      <point x="1008" y="1311"/>
      <point x="1006" y="1260"/>
      <point x="1006" y="1204" type="curve" smooth="yes"/>
      <point x="1006" y="319" type="line" smooth="yes"/>
      <point x="1006" y="174"/>
      <point x="1018" y="74"/>
      <point x="864" y="68" type="curve"/>
      <point x="864" y="0" type="line"/>
      <point x="1325" y="0" type="line"/>
      <point x="1325" y="90" type="line"/>
      <point x="1178" y="82" type="line"/>
      <point x="1182" y="117"/>
      <point x="1184" y="170"/>
      <point x="1184" y="244" type="curve" smooth="yes"/>
      <point x="1184" y="1114" type="line" smooth="yes"/>
      <point x="1184" y="1260"/>
      <point x="1172" y="1360"/>
      <point x="1325" y="1366" type="curve"/>
      <point x="1325" y="1434" type="line"/>
    </contour>
    <contour>
      <point x="206" y="706"/>
      <point x="333" y="560"/>
      <point x="630" y="560" type="curve" smooth="yes"/>
      <point x="775" y="560"/>
      <point x="911" y="590"/>
      <point x="1007" y="637" type="curve"/>
      <point x="1006" y="737" type="line"/>
      <point x="933" y="695"/>
      <point x="826" y="665"/>
      <point x="705" y="664" type="curve" smooth="yes"/>
      <point x="479" y="662"/>
      <point x="387" y="785"/>
      <point x="385" y="923" type="curve"/>
      <point x="206" y="969" type="line"/>
    </contour>
    <contour>
      <point x="65" y="1434" type="line"/>
      <point x="65" y="1343" type="line"/>
      <point x="213" y="1352" type="line"/>
      <point x="207" y="1307"/>
      <point x="206" y="1249"/>
      <point x="206" y="969" type="curve"/>
      <point x="385" y="923" type="line"/>
      <point x="387" y="1250"/>
      <point x="365" y="1360"/>
      <point x="526" y="1366" type="curve"/>
      <point x="526" y="1434" type="line"/>
    </contour>
  </outline>
</glyph>
<glyph name="Shcha-cy" format="1">
  <advance width="2050"/>
  <unicode hex="0429"/>
  <outline>
    <contour>
      <point x="1955" y="91" type="line"/>
      <point x="1737" y="0" type="line"/>
      <point x="1872" y="0"/>
      <point x="1900" y="-160"/>
      <point x="1900" y="-364" type="curve"/>
      <point x="1985" y="-364" type="line"/>
      <point x="1985" y="92" type="line"/>
    </contour>
    <component base="Sha-cy"/>
  </outline>
</glyph>
<glyph name="Hardsign-cy" format="1">
  <advance width="1469"/>
  <unicode hex="042A"/>
  <outline>
    <contour>
      <point x="497" y="1434" type="line"/>
      <point x="501" y="1352" type="line"/>
      <point x="496" y="1311"/>
      <point x="494" y="1260"/>
      <point x="494" y="1204" type="curve" smooth="yes"/>
      <point x="494" y="319" type="line" smooth="yes"/>
      <point x="495" y="171"/>
      <point x="503" y="72"/>
      <point x="353" y="68" type="curve"/>
      <point x="353" y="0" type="line"/>
      <point x="941" y="0" type="line" smooth="yes"/>
      <point x="1208" y="0"/>
      <point x="1404" y="149"/>
      <point x="1404" y="437" type="curve" smooth="yes"/>
      <point x="1404" y="678"/>
      <point x="1258" y="852"/>
      <point x="828" y="839" type="curve" smooth="yes"/>
      <point x="673" y="834" type="line"/>
      <point x="673" y="1114" type="line" smooth="yes"/>
      <point x="673" y="1260"/>
      <point x="660" y="1360"/>
      <point x="814" y="1366" type="curve"/>
      <point x="814" y="1434" type="line"/>
    </contour>
    <contour>
      <point x="1040" y="761"/>
      <point x="1206" y="689"/>
      <point x="1206" y="429" type="curve" smooth="yes"/>
      <point x="1206" y="184"/>
      <point x="1064" y="78"/>
      <point x="873" y="78" type="curve" smooth="yes"/>
      <point x="847" y="78"/>
      <point x="730" y="76"/>
      <point x="666" y="82" type="curve"/>
      <point x="671" y="117"/>
      <point x="673" y="168"/>
      <point x="673" y="242" type="curve" smooth="yes"/>
      <point x="673" y="755" type="line"/>
      <point x="738" y="759"/>
      <point x="792" y="761"/>
      <point x="873" y="761" type="curve" smooth="yes"/>
    </contour>
    <contour>
      <point x="57" y="1434" type="line"/>
      <point x="45" y="1001" type="line"/>
      <point x="121" y="1001" type="line"/>
      <point x="121" y="1243"/>
      <point x="184" y="1349"/>
      <point x="356" y="1350" type="curve" smooth="yes"/>
      <point x="573" y="1351" type="line"/>
      <point x="573" y="1434" type="line"/>
    </contour>
  </outline>
</glyph>
<glyph name="Iu-cy" format="1">
  <advance width="2202"/>
  <unicode hex="042E"/>
  <outline>
    <contour>
      <point x="950" y="1467"/>
      <point x="730" y="1061"/>
      <point x="730" y="717" type="curve" smooth="yes"/>
      <point x="730" y="360"/>
      <point x="930" y="-33"/>
      <point x="1399" y="-33" type="curve" smooth="yes"/>
      <point x="1882" y="-33"/>
      <point x="2112" y="377"/>
      <point x="2112" y="717" type="curve" smooth="yes"/>
      <point x="2112" y="1059"/>
      <point x="1882" y="1467"/>
      <point x="1383" y="1467" type="curve" smooth="yes"/>
    </contour>
    <contour>
      <point x="113" y="1434" type="line"/>
      <point x="113" y="1343" type="line"/>
      <point x="261" y="1352" type="line"/>
      <point x="256" y="1311"/>
      <point x="254" y="1260"/>
      <point x="254" y="1204" type="curve" smooth="yes"/>
      <point x="254" y="319" type="line" smooth="yes"/>
      <point x="254" y="174"/>
      <point x="267" y="74"/>
      <point x="113" y="68" type="curve"/>
      <point x="113" y="0" type="line"/>
      <point x="574" y="0" type="line"/>
      <point x="574" y="90" type="line"/>
      <point x="426" y="82" type="line"/>
      <point x="431" y="117"/>
      <point x="433" y="170"/>
      <point x="433" y="244" type="curve" smooth="yes"/>
      <point x="433" y="684" type="line"/>
      <point x="794" y="693" type="line"/>
      <point x="794" y="774" type="line"/>
      <point x="433" y="774" type="line"/>
      <point x="433" y="1114" type="line" smooth="yes"/>
      <point x="433" y="1260"/>
      <point x="420" y="1360"/>
      <point x="574" y="1366" type="curve"/>
      <point x="574" y="1434" type="line"/>
    </contour>
    <contour>
      <point x="1716" y="1385"/>
      <point x="1907" y="1014"/>
      <point x="1907" y="678" type="curve" smooth="yes"/>
      <point x="1907" y="377"/>
      <point x="1739" y="51"/>
      <point x="1403" y="51" type="curve" smooth="yes"/>
      <point x="1088" y="51"/>
      <point x="931" y="450"/>
      <point x="931" y="754" type="curve" smooth="yes"/>
      <point x="931" y="1057"/>
      <point x="1087" y="1385"/>
      <point x="1376" y="1385" type="curve" smooth="yes"/>
    </contour>
  </outline>
</glyph>
<glyph name="Ia-cy" format="1">
  <advance width="1378"/>
  <unicode hex="042F"/>
  <outline>
    <contour>
      <point x="718" y="1434" type="line" smooth="yes"/>
      <point x="411" y="1434"/>
      <point x="260" y="1289"/>
      <point x="260" y="1001" type="curve" smooth="yes"/>
      <point x="260" y="771"/>
      <point x="486" y="615"/>
      <point x="752" y="615" type="curve"/>
      <point x="752" y="598" type="line"/>
      <point x="946" y="600" type="line"/>
      <point x="946" y="320" type="line" smooth="yes"/>
      <point x="946" y="174"/>
      <point x="959" y="74"/>
      <point x="805" y="68" type="curve"/>
      <point x="805" y="0" type="line"/>
      <point x="1266" y="0" type="line"/>
      <point x="1266" y="91" type="line"/>
      <point x="1118" y="82" type="line"/>
      <point x="1123" y="123"/>
      <point x="1125" y="174"/>
      <point x="1125" y="230" type="curve" smooth="yes"/>
      <point x="1125" y="1115" type="line" smooth="yes"/>
      <point x="1124" y="1263"/>
      <point x="1116" y="1362"/>
      <point x="1266" y="1366" type="curve"/>
      <point x="1266" y="1434" type="line"/>
    </contour>
    <contour>
      <point x="554" y="627"/>
      <point x="508" y="590"/>
      <point x="447" y="499" type="curve" smooth="yes"/>
      <point x="288" y="262" type="line" smooth="yes"/>
      <point x="202" y="133"/>
      <point x="160" y="68"/>
      <point x="45" y="68" type="curve"/>
      <point x="45" y="0" type="line"/>
      <point x="286" y="0" type="line"/>
      <point x="347" y="31"/>
      <point x="418" y="137"/>
      <point x="476" y="227" type="curve" smooth="yes"/>
      <point x="628" y="462" type="line" smooth="yes"/>
      <point x="658" y="509"/>
      <point x="703" y="563"/>
      <point x="764" y="598" type="curve"/>
      <point x="764" y="629" type="line"/>
      <point x="651" y="640" type="line"/>
    </contour>
    <contour>
      <point x="812" y="1356"/>
      <point x="939" y="1358"/>
      <point x="953" y="1352" type="curve"/>
      <point x="948" y="1317"/>
      <point x="946" y="1266"/>
      <point x="946" y="1192" type="curve" smooth="yes"/>
      <point x="946" y="679" type="line"/>
      <point x="931" y="675"/>
      <point x="867" y="673"/>
      <point x="786" y="673" type="curve" smooth="yes"/>
      <point x="603" y="673"/>
      <point x="453" y="820"/>
      <point x="453" y="1005" type="curve" smooth="yes"/>
      <point x="453" y="1250"/>
      <point x="595" y="1356"/>
      <point x="786" y="1356" type="curve" smooth="yes"/>
    </contour>
  </outline>
</glyph>
<glyph name="zhe-cy" format="1">
  <advance width="1588"/>
  <unicode hex="0436"/>
  <outline>
    <contour>
      <point x="591" y="1024" type="line"/>
      <point x="591" y="940" type="line"/>
      <point x="720" y="946" type="line"/>
      <point x="712" y="899"/>
      <point x="712" y="862"/>
      <point x="712" y="807" type="curve" smooth="yes"/>
      <point x="710" y="311" type="line" smooth="yes"/>
      <point x="709" y="164"/>
      <point x="713" y="61"/>
      <point x="588" y="61" type="curve"/>
      <point x="588" y="0" type="line"/>
      <point x="996" y="0" type="line"/>
      <point x="996" y="84" type="line"/>
      <point x="867" y="78" type="line"/>
      <point x="875" y="125"/>
      <point x="875" y="162"/>
      <point x="875" y="217" type="curve" smooth="yes"/>
      <point x="878" y="713" type="line" smooth="yes"/>
      <point x="879" y="860"/>
      <point x="874" y="963"/>
      <point x="999" y="963" type="curve"/>
      <point x="999" y="1024" type="line"/>
    </contour>
    <contour>
      <point x="452" y="539"/>
      <point x="335" y="378"/>
      <point x="248" y="258" type="curve" smooth="yes"/>
      <point x="158" y="133"/>
      <point x="87" y="61"/>
      <point x="15" y="61" type="curve"/>
      <point x="15" y="0" type="line"/>
      <point x="195" y="0" type="line" smooth="yes"/>
      <point x="261" y="0"/>
      <point x="326" y="82"/>
      <point x="411" y="195" type="curve" smooth="yes"/>
      <point x="480" y="286"/>
      <point x="563" y="415"/>
      <point x="644" y="508" type="curve"/>
      <point x="534" y="584" type="line"/>
    </contour>
    <contour>
      <point x="38" y="1024" type="line"/>
      <point x="38" y="963" type="line"/>
      <point x="177" y="948"/>
      <point x="294" y="826"/>
      <point x="366" y="748" type="curve" smooth="yes"/>
      <point x="564" y="503" type="line"/>
      <point x="740" y="497" type="line"/>
      <point x="740" y="578" type="line"/>
      <point x="612" y="578" type="line"/>
      <point x="392" y="840" type="line" smooth="yes"/>
      <point x="347" y="887"/>
      <point x="310" y="924"/>
      <point x="271" y="948" type="curve"/>
      <point x="411" y="942" type="line"/>
      <point x="411" y="1024" type="line"/>
    </contour>
    <contour>
      <point x="944" y="508" type="line"/>
      <point x="1025" y="415"/>
      <point x="1108" y="286"/>
      <point x="1177" y="195" type="curve" smooth="yes"/>
      <point x="1262" y="82"/>
      <point x="1327" y="0"/>
      <point x="1393" y="0" type="curve" smooth="yes"/>
      <point x="1573" y="0" type="line"/>
      <point x="1573" y="61" type="line"/>
      <point x="1501" y="61"/>
      <point x="1430" y="133"/>
      <point x="1340" y="258" type="curve" smooth="yes"/>
      <point x="1253" y="378"/>
      <point x="1136" y="539"/>
      <point x="1054" y="584" type="curve"/>
    </contour>
    <contour>
      <point x="1177" y="1024" type="line"/>
      <point x="1177" y="942" type="line"/>
      <point x="1317" y="948" type="line"/>
      <point x="1278" y="924"/>
      <point x="1241" y="887"/>
      <point x="1196" y="840" type="curve" smooth="yes"/>
      <point x="976" y="578" type="line"/>
      <point x="848" y="578" type="line"/>
      <point x="848" y="497" type="line"/>
      <point x="1024" y="503" type="line"/>
      <point x="1222" y="748" type="line" smooth="yes"/>
      <point x="1294" y="826"/>
      <point x="1411" y="948"/>
      <point x="1550" y="963" type="curve"/>
      <point x="1550" y="1024" type="line"/>
    </contour>
  </outline>
</glyph>
<glyph name="ka-cy" format="1">
  <advance width="1100"/>
  <unicode hex="043A"/>
  <outline>
    <contour>
      <point x="679" y="1024" type="line"/>
      <point x="679" y="942" type="line"/>
      <point x="819" y="948" type="line"/>
      <point x="780" y="924"/>
      <point x="743" y="887"/>
      <point x="698" y="840" type="curve" smooth="yes"/>
      <point x="448" y="578" type="line"/>
      <point x="350" y="578" type="line"/>
      <point x="350" y="497" type="line"/>
      <point x="450" y="502" type="line"/>
      <point x="503" y="451"/>
      <point x="575" y="339"/>
      <point x="683" y="193" type="curve" smooth="yes"/>
      <point x="757" y="95"/>
      <point x="824" y="0"/>
      <point x="899" y="0" type="curve" smooth="yes"/>
      <point x="1085" y="0" type="line"/>
      <point x="1085" y="61" type="line"/>
      <point x="991" y="61"/>
      <point x="862" y="250"/>
      <point x="837" y="283" type="curve" smooth="yes"/>
      <point x="692" y="469" type="line" smooth="yes"/>
      <point x="654" y="517"/>
      <point x="618" y="555"/>
      <point x="565" y="580" type="curve"/>
      <point x="724" y="748" type="line" smooth="yes"/>
      <point x="798" y="823"/>
      <point x="913" y="948"/>
      <point x="1052" y="963" type="curve"/>
      <point x="1052" y="1024" type="line"/>
    </contour>
    <contour>
      <point x="73" y="1024" type="line"/>
      <point x="73" y="940" type="line"/>
      <point x="202" y="946" type="line"/>
      <point x="194" y="899"/>
      <point x="194" y="862"/>
      <point x="194" y="807" type="curve" smooth="yes"/>
      <point x="192" y="311" type="line" smooth="yes"/>
      <point x="191" y="164"/>
      <point x="195" y="61"/>
      <point x="70" y="61" type="curve"/>
      <point x="70" y="0" type="line"/>
      <point x="488" y="0" type="line"/>
      <point x="488" y="84" type="line"/>
      <point x="359" y="78" type="line"/>
      <point x="367" y="125"/>
      <point x="367" y="162"/>
      <point x="367" y="217" type="curve" smooth="yes"/>
      <point x="370" y="713" type="line" smooth="yes"/>
      <point x="371" y="860"/>
      <point x="366" y="963"/>
      <point x="491" y="963" type="curve"/>
      <point x="491" y="1024" type="line"/>
    </contour>
  </outline>
</glyph>
<glyph name="em-cy" format="1">
  <advance width="1512"/>
  <unicode hex="043C"/>
  <outline>
    <contour>
      <point x="1081" y="1024" type="line"/>
      <point x="744" y="203" type="line"/>
      <point x="761" y="223" type="line"/>
      <point x="422" y="1024" type="line"/>
      <point x="149" y="1024" type="line"/>
      <point x="149" y="940" type="line"/>
      <point x="275" y="946" type="line"/>
      <point x="184" y="199" type="line" smooth="yes"/>
      <point x="174" y="113"/>
      <point x="151" y="60"/>
      <point x="65" y="61" type="curve"/>
      <point x="65" y="0" type="line"/>
      <point x="380" y="0" type="line"/>
      <point x="380" y="84" type="line"/>
      <point x="251" y="79" type="line"/>
      <point x="262" y="113"/>
      <point x="272" y="163"/>
      <point x="276" y="198" type="curve" smooth="yes"/>
      <point x="348" y="782" type="line"/>
      <point x="668" y="0" type="line"/>
      <point x="750" y="0" type="line"/>
      <point x="1062" y="761" type="line"/>
      <point x="1143" y="236" type="line" smooth="yes"/>
      <point x="1162" y="113"/>
      <point x="1119" y="58"/>
      <point x="1034" y="61" type="curve"/>
      <point x="1034" y="0" type="line"/>
      <point x="1447" y="0" type="line"/>
      <point x="1447" y="84" type="line"/>
      <point x="1315" y="79" type="line"/>
      <point x="1319" y="111"/>
      <point x="1319" y="157"/>
      <point x="1314" y="192" type="curve" smooth="yes"/>
      <point x="1221" y="816" type="line" smooth="yes"/>
      <point x="1205" y="923"/>
      <point x="1247" y="963"/>
      <point x="1322" y="963" type="curve"/>
      <point x="1322" y="1024" type="line"/>
    </contour>
  </outline>
</glyph>
<glyph name="tse-cy" format="1">
  <advance width="1256"/>
  <unicode hex="0446"/>
  <outline>
    <contour>
      <point x="93" y="1024" type="line"/>
      <point x="93" y="940" type="line"/>
      <point x="222" y="946" type="line"/>
      <point x="214" y="899"/>
      <point x="214" y="862"/>
      <point x="214" y="807" type="curve" smooth="yes"/>
      <point x="211" y="311" type="line" smooth="yes"/>
      <point x="210" y="164"/>
      <point x="215" y="61"/>
      <point x="90" y="61" type="curve"/>
      <point x="90" y="0" type="line"/>
      <point x="938" y="0" type="line"/>
      <point x="938" y="84" type="line"/>
      <point x="379" y="78" type="line"/>
      <point x="387" y="125"/>
      <point x="387" y="162"/>
      <point x="387" y="217" type="curve" smooth="yes"/>
      <point x="389" y="713" type="line" smooth="yes"/>
      <point x="390" y="860"/>
      <point x="386" y="963"/>
      <point x="511" y="963" type="curve"/>
      <point x="511" y="1024" type="line"/>
    </contour>
    <contour>
      <point x="1146" y="84" type="line"/>
      <point x="953" y="0" type="line"/>
      <point x="1088" y="0"/>
      <point x="1123" y="-160"/>
      <point x="1123" y="-364" type="curve"/>
      <point x="1201" y="-364" type="line"/>
      <point x="1201" y="86" type="line"/>
    </contour>
    <contour>
      <point x="731" y="1024" type="line"/>
      <point x="731" y="940" type="line"/>
      <point x="860" y="946" type="line"/>
      <point x="852" y="899"/>
      <point x="852" y="862"/>
      <point x="852" y="807" type="curve" smooth="yes"/>
      <point x="849" y="311" type="line" smooth="yes"/>
      <point x="848" y="164"/>
      <point x="853" y="82"/>
      <point x="728" y="82" type="curve"/>
      <point x="728" y="0" type="line"/>
      <point x="1146" y="0" type="line"/>
      <point x="1146" y="84" type="line"/>
      <point x="1017" y="78" type="line"/>
      <point x="1025" y="125"/>
      <point x="1025" y="162"/>
      <point x="1025" y="217" type="curve" smooth="yes"/>
      <point x="1027" y="713" type="line" smooth="yes"/>
      <point x="1028" y="860"/>
      <point x="1024" y="963"/>
      <point x="1149" y="963" type="curve"/>
      <point x="1149" y="1024" type="line"/>
    </contour>
  </outline>
</glyph>
<glyph name="che-cy" format="1">
  <advance width="1143"/>
  <unicode hex="0447"/>
  <outline>
    <contour>
      <point x="635" y="1024" type="line"/>
      <point x="635" y="940" type="line"/>
      <point x="764" y="946" type="line"/>
      <point x="756" y="899"/>
      <point x="756" y="862"/>
      <point x="756" y="807" type="curve" smooth="yes"/>
      <point x="754" y="311" type="line" smooth="yes"/>
      <point x="753" y="164"/>
      <point x="757" y="61"/>
      <point x="632" y="61" type="curve"/>
      <point x="632" y="0" type="line"/>
      <point x="1050" y="0" type="line"/>
      <point x="1050" y="84" type="line"/>
      <point x="921" y="78" type="line"/>
      <point x="929" y="125"/>
      <point x="929" y="162"/>
      <point x="929" y="217" type="curve" smooth="yes"/>
      <point x="932" y="713" type="line" smooth="yes"/>
      <point x="933" y="860"/>
      <point x="928" y="963"/>
      <point x="1053" y="963" type="curve"/>
      <point x="1053" y="1024" type="line"/>
    </contour>
    <contour>
      <point x="156" y="545"/>
      <point x="269" y="400"/>
      <point x="528" y="400" type="curve" smooth="yes"/>
      <point x="626" y="400"/>
      <point x="773" y="420"/>
      <point x="861" y="467" type="curve"/>
      <point x="859" y="567" type="line"/>
      <point x="789" y="525"/>
      <point x="681" y="506"/>
      <point x="612" y="504" type="curve" smooth="yes"/>
      <point x="422" y="500"/>
      <point x="334" y="625"/>
      <point x="332" y="713" type="curve"/>
      <point x="156" y="758" type="line"/>
    </contour>
    <contour>
      <point x="35" y="1024" type="line"/>
      <point x="35" y="940" type="line"/>
      <point x="164" y="946" type="line"/>
      <point x="156" y="899"/>
      <point x="156" y="813"/>
      <point x="156" y="758" type="curve"/>
      <point x="332" y="713" type="line"/>
      <point x="333" y="910"/>
      <point x="358" y="963"/>
      <point x="453" y="963" type="curve"/>
      <point x="453" y="1024" type="line"/>
    </contour>
  </outline>
</glyph>
<glyph name="yeru-cy" format="1">
  <advance width="1519"/>
  <unicode hex="044B"/>
  <outline>
    <contour>
      <point x="92" y="1024" type="line"/>
      <point x="92" y="940" type="line"/>
      <point x="221" y="946" type="line"/>
      <point x="213" y="899"/>
      <point x="213" y="862"/>
      <point x="213" y="807" type="curve" smooth="yes"/>
      <point x="213" y="236" type="line" smooth="yes"/>
      <point x="213" y="128"/>
      <point x="190" y="64"/>
      <point x="90" y="61" type="curve"/>
      <point x="90" y="0" type="line"/>
      <point x="595" y="0" type="line" smooth="yes"/>
      <point x="774" y="0"/>
      <point x="930" y="107"/>
      <point x="930" y="304" type="curve" smooth="yes"/>
      <point x="930" y="466"/>
      <point x="824" y="607"/>
      <point x="493" y="597" type="curve" smooth="yes"/>
      <point x="389" y="594" type="line"/>
      <point x="389" y="783" type="line" smooth="yes"/>
      <point x="390" y="860"/>
      <point x="385" y="963"/>
      <point x="510" y="963" type="curve"/>
      <point x="510" y="1024" type="line"/>
    </contour>
    <contour>
      <point x="664" y="521"/>
      <point x="749" y="439"/>
      <point x="749" y="298" type="curve" smooth="yes"/>
      <point x="749" y="142"/>
      <point x="647" y="81"/>
      <point x="521" y="81" type="curve" smooth="yes"/>
      <point x="474" y="81"/>
      <point x="430" y="82"/>
      <point x="384" y="84" type="curve"/>
      <point x="387" y="109"/>
      <point x="389" y="145"/>
      <point x="389" y="198" type="curve" smooth="yes"/>
      <point x="389" y="516" type="line"/>
      <point x="435" y="519"/>
      <point x="463" y="521"/>
      <point x="521" y="521" type="curve" smooth="yes"/>
    </contour>
    <contour>
      <point x="1011" y="1024" type="line"/>
      <point x="1011" y="940" type="line"/>
      <point x="1140" y="946" type="line"/>
      <point x="1132" y="899"/>
      <point x="1132" y="862"/>
      <point x="1132" y="807" type="curve" smooth="yes"/>
      <point x="1130" y="311" type="line" smooth="yes"/>
      <point x="1129" y="164"/>
      <point x="1133" y="61"/>
      <point x="1008" y="61" type="curve"/>
      <point x="1008" y="0" type="line"/>
      <point x="1426" y="0" type="line"/>
      <point x="1426" y="84" type="line"/>
      <point x="1297" y="78" type="line"/>
      <point x="1305" y="125"/>
      <point x="1305" y="162"/>
      <point x="1305" y="217" type="curve" smooth="yes"/>
      <point x="1308" y="713" type="line" smooth="yes"/>
      <point x="1309" y="860"/>
      <point x="1304" y="963"/>
      <point x="1429" y="963" type="curve"/>
      <point x="1429" y="1024" type="line"/>
    </contour>
  </outline>
</glyph>
<glyph name="emdash" format="1">
  <advance width="1434"/>
  <unicode hex="2014"/>
  <outline>
    <contour>
      <point x="135" y="727" type="line"/>
      <point x="135" y="584" type="line"/>
      <point x="1292" y="592" type="line"/>
      <point x="1292" y="727" type="line"/>
    </contour>
  </outline>
</glyph>
<glyph name="daggerdbl" format="1">
  <advance width="1087"/>
  <unicode hex="2021"/>
  <outline>
    <contour>
      <point x="470" y="1556"/>
      <point x="445" y="1472"/>
      <point x="451" y="1407" type="curve" smooth="yes"/>
      <point x="465" y="1255"/>
      <point x="502" y="1054"/>
      <point x="524" y="931" type="curve"/>
      <point x="424" y="952"/>
      <point x="322" y="973"/>
      <point x="222" y="986" type="curve" smooth="yes"/>
      <point x="156" y="995"/>
      <point x="72" y="991"/>
      <point x="72" y="915" type="curve" smooth="yes"/>
      <point x="72" y="839"/>
      <point x="156" y="835"/>
      <point x="222" y="843" type="curve" smooth="yes"/>
      <point x="321" y="856"/>
      <point x="423" y="877"/>
      <point x="523" y="898" type="curve"/>
      <point x="492" y="743"/>
      <point x="465" y="577"/>
      <point x="435" y="502" type="curve"/>
      <point x="465" y="427"/>
      <point x="492" y="257"/>
      <point x="523" y="102" type="curve"/>
      <point x="423" y="122"/>
      <point x="321" y="144"/>
      <point x="222" y="157" type="curve" smooth="yes"/>
      <point x="156" y="165"/>
      <point x="72" y="161"/>
      <point x="72" y="85" type="curve" smooth="yes"/>
      <point x="72" y="10"/>
      <point x="156" y="5"/>
      <point x="222" y="14" type="curve" smooth="yes"/>
      <point x="322" y="27"/>
      <point x="424" y="48"/>
      <point x="524" y="69" type="curve"/>
      <point x="502" y="-54"/>
      <point x="465" y="-253"/>
      <point x="451" y="-405" type="curve" smooth="yes"/>
      <point x="445" y="-470"/>
      <point x="466" y="-555"/>
      <point x="541" y="-555" type="curve" smooth="yes"/>
      <point x="617" y="-555"/>
      <point x="642" y="-470"/>
      <point x="636" y="-405" type="curve" smooth="yes"/>
      <point x="621" y="-253"/>
      <point x="585" y="-54"/>
      <point x="562" y="69" type="curve"/>
      <point x="663" y="48"/>
      <point x="765" y="27"/>
      <point x="865" y="14" type="curve" smooth="yes"/>
      <point x="931" y="5"/>
      <point x="1015" y="10"/>
      <point x="1015" y="85" type="curve" smooth="yes"/>
      <point x="1015" y="161"/>
      <point x="931" y="165"/>
      <point x="865" y="157" type="curve" smooth="yes"/>
      <point x="766" y="144"/>
      <point x="664" y="123"/>
      <point x="563" y="102" type="curve"/>
      <point x="595" y="258"/>
      <point x="622" y="427"/>
      <point x="652" y="502" type="curve"/>
      <point x="622" y="577"/>
      <point x="595" y="742"/>
      <point x="563" y="897" type="curve"/>
      <point x="664" y="877"/>
      <point x="766" y="856"/>
      <point x="865" y="843" type="curve" smooth="yes"/>
      <point x="931" y="835"/>
      <point x="1015" y="839"/>
      <point x="1015" y="915" type="curve" smooth="yes"/>
      <point x="1015" y="991"/>
      <point x="931" y="995"/>
      <point x="865" y="986" type="curve" smooth="yes"/>
      <point x="765" y="973"/>
      <point x="663" y="952"/>
      <point x="562" y="931" type="curve"/>
      <point x="585" y="1054"/>
      <point x="621" y="1255"/>
      <point x="636" y="1407" type="curve" smooth="yes"/>
      <point x="642" y="1472"/>
      <point x="621" y="1556"/>
      <point x="546" y="1556" type="curve" smooth="yes"/>
    </contour>
  </outline>
</glyph>
<glyph name="perthousand" format="1">
  <advance width="2644"/>
  <unicode hex="2030"/>
  <outline>
    <contour>
      <point x="1997" y="747"/>
      <point x="1827" y="557"/>
      <point x="1827" y="346" type="curve" smooth="yes"/>
      <point x="1827" y="157"/>
      <point x="1952" y="-37"/>
      <point x="2206" y="-33" type="curve" smooth="yes"/>
      <point x="2445" y="-29"/>
      <point x="2576" y="174"/>
      <point x="2576" y="364" type="curve" smooth="yes"/>
      <point x="2576" y="561"/>
      <point x="2449" y="747"/>
      <point x="2206" y="747" type="curve" smooth="yes"/>
    </contour>
    <contour>
      <point x="2361" y="669"/>
      <point x="2400" y="463"/>
      <point x="2400" y="331" type="curve" smooth="yes"/>
      <point x="2400" y="227"/>
      <point x="2362" y="41"/>
      <point x="2208" y="41" type="curve" smooth="yes"/>
      <point x="2055" y="41"/>
      <point x="2005" y="241"/>
      <point x="2005" y="379" type="curve" smooth="yes"/>
      <point x="2005" y="506"/>
      <point x="2050" y="665"/>
      <point x="2199" y="667" type="curve" smooth="yes"/>
    </contour>
    <component base="percent" xOffset="6"/>
  </outline>
</glyph>
<glyph name="estimated" format="1">
  <advance width="1180"/>
  <unicode hex="212E"/>
  <outline>
    <contour>
      <point x="286" y="1041"/>
      <point x="84" y="810"/>
      <point x="84" y="507" type="curve" smooth="yes"/>
      <point x="84" y="207"/>
      <point x="280" y="-26"/>
      <point x="589" y="-26" type="curve" smooth="yes"/>
      <point x="779" y="-26"/>
      <point x="924" y="65"/>
      <point x="1035" y="234" type="curve"/>
      <point x="967" y="275" type="line"/>
      <point x="877" y="122"/>
      <point x="751" y="44"/>
      <point x="589" y="44" type="curve" smooth="yes"/>
      <point x="481" y="44"/>
      <point x="385" y="83"/>
      <point x="305" y="158" type="curve"/>
      <point x="305" y="507" type="line"/>
      <point x="1096" y="507" type="line"/>
      <point x="1086" y="800"/>
      <point x="914" y="1041"/>
      <point x="589" y="1041" type="curve" smooth="yes"/>
    </contour>
    <contour>
      <point x="697" y="974"/>
      <point x="793" y="936"/>
      <point x="875" y="857" type="curve"/>
      <point x="875" y="578" type="line"/>
      <point x="305" y="578" type="line"/>
      <point x="305" y="857" type="line"/>
      <point x="382" y="936"/>
      <point x="476" y="974"/>
      <point x="587" y="974" type="curve" smooth="yes"/>
    </contour>
  </outline>
</glyph>
<glyph name="product" format="1">
  <advance width="1628"/>
  <unicode hex="220F"/>
  <outline>
    <contour>
      <point x="113" y="1434" type="line"/>
      <point x="113" y="1343" type="line"/>
      <point x="261" y="1352" type="line"/>
      <point x="256" y="1311"/>
      <point x="254" y="1260"/>
      <point x="254" y="1204" type="curve" smooth="yes"/>
      <point x="254" y="-203" type="line" smooth="yes"/>
      <point x="254" y="-348"/>
      <point x="267" y="-448"/>
      <point x="113" y="-454" type="curve"/>
      <point x="113" y="-522" type="line"/>
      <point x="574" y="-522" type="line"/>
      <point x="574" y="-432" type="line"/>
      <point x="426" y="-440" type="line"/>
      <point x="431" y="-405"/>
      <point x="433" y="-352"/>
      <point x="433" y="-278" type="curve" smooth="yes"/>
      <point x="433" y="1344" type="line"/>
      <point x="1196" y="1353" type="line"/>
      <point x="1196" y="-203" type="line" smooth="yes"/>
      <point x="1196" y="-348"/>
      <point x="1208" y="-448"/>
      <point x="1054" y="-454" type="curve"/>
      <point x="1054" y="-522" type="line"/>
      <point x="1515" y="-522" type="line"/>
      <point x="1515" y="-432" type="line"/>
      <point x="1368" y="-440" type="line"/>
      <point x="1372" y="-405"/>
      <point x="1374" y="-352"/>
      <point x="1374" y="-278" type="curve" smooth="yes"/>
      <point x="1374" y="1114" type="line" smooth="yes"/>
      <point x="1374" y="1260"/>
      <point x="1362" y="1360"/>
      <point x="1515" y="1366" type="curve"/>
      <point x="1515" y="1434" type="line"/>
    </contour>
  </outline>
</glyph>
<glyph name="infinity" format="1">
  <advance width="1792"/>
  <unicode hex="221E"/>
  <outline>
    <contour>
      <point x="1137" y="1149"/>
      <point x="983" y="1022"/>
      <point x="901" y="855" type="curve"/>
      <point x="784" y="1040"/>
      <point x="672" y="1139"/>
      <point x="508" y="1139" type="curve" smooth="yes"/>
      <point x="291" y="1139"/>
      <point x="154" y="956"/>
      <point x="154" y="723" type="curve" smooth="yes"/>
      <point x="154" y="518"/>
      <point x="253" y="285"/>
      <point x="519" y="285" type="curve" smooth="yes"/>
      <point x="680" y="285"/>
      <point x="811" y="411"/>
      <point x="888" y="565" type="curve"/>
      <point x="1034" y="339"/>
      <point x="1154" y="276"/>
      <point x="1297" y="276" type="curve" smooth="yes"/>
      <point x="1506" y="276"/>
      <point x="1641" y="473"/>
      <point x="1641" y="707" type="curve" smooth="yes"/>
      <point x="1641" y="952"/>
      <point x="1547" y="1149"/>
      <point x="1301" y="1149" type="curve" smooth="yes"/>
    </contour>
    <contour>
      <point x="672" y="977"/>
      <point x="756" y="791"/>
      <point x="834" y="655" type="curve" smooth="yes"/>
      <point x="836" y="651"/>
      <point x="838" y="647"/>
      <point x="841" y="643" type="curve"/>
      <point x="754" y="503"/>
      <point x="639" y="432"/>
      <point x="513" y="432" type="curve" smooth="yes"/>
      <point x="355" y="432"/>
      <point x="240" y="547"/>
      <point x="240" y="709" type="curve" smooth="yes"/>
      <point x="240" y="885"/>
      <point x="361" y="977"/>
      <point x="492" y="977" type="curve" smooth="yes"/>
    </contour>
    <contour>
      <point x="1457" y="1008"/>
      <point x="1553" y="887"/>
      <point x="1553" y="725" type="curve" smooth="yes"/>
      <point x="1553" y="565"/>
      <point x="1459" y="432"/>
      <point x="1287" y="432" type="curve" smooth="yes"/>
      <point x="1129" y="432"/>
      <point x="1035" y="610"/>
      <point x="949" y="773" type="curve"/>
      <point x="1067" y="951"/>
      <point x="1190" y="1008"/>
      <point x="1313" y="1008" type="curve" smooth="yes"/>
    </contour>
  </outline>
</glyph>
<glyph name="Circumflex" format="1">
  <advance width="963"/>
  <outline>
    <contour>
      <point x="489" y="1907" type="line"/>
      <point x="92" y="1616" type="line"/>
      <point x="133" y="1550" type="line"/>
      <point x="481" y="1729" type="line"/>
      <point x="485" y="1729" type="line"/>
      <point x="825" y="1548" type="line"/>
      <point x="870" y="1618" type="line"/>
      <point x="494" y="1907" type="line"/>
    </contour>
  </outline>
</glyph>
<glyph name="Ring" format="1">
  <advance width="655"/>
  <outline>
    <contour>
      <point x="209" y="1917"/>
      <point x="90" y="1821"/>
      <point x="94" y="1679" type="curve" smooth="yes"/>
      <point x="100" y="1530"/>
      <point x="215" y="1464"/>
      <point x="330" y="1464" type="curve" smooth="yes"/>
      <point x="444" y="1464"/>
      <point x="565" y="1556"/>
      <point x="561" y="1704" type="curve" smooth="yes"/>
      <point x="555" y="1851"/>
      <point x="436" y="1917"/>
      <point x="326" y="1917" type="curve" smooth="yes"/>
    </contour>
    <contour>
      <point x="389" y="1851"/>
      <point x="442" y="1792"/>
      <point x="442" y="1675" type="curve" smooth="yes"/>
      <point x="442" y="1591"/>
      <point x="393" y="1538"/>
      <point x="338" y="1536" type="curve" smooth="yes"/>
      <point x="262" y="1534"/>
      <point x="213" y="1599"/>
      <point x="213" y="1700" type="curve" smooth="yes"/>
      <point x="213" y="1786"/>
      <point x="256" y="1843"/>
      <point x="319" y="1847" type="curve" smooth="yes"/>
    </contour>
  </outline>
</glyph>
<glyph name="caroncomb.alt" format="1">
  <advance width="504"/>
  <outline>
    <contour>
      <point x="323" y="1466"/>
      <point x="326" y="1347"/>
      <point x="235" y="1175" type="curve"/>
      <point x="289" y="1135" type="line"/>
      <point x="374" y="1220"/>
      <point x="447" y="1329"/>
      <point x="457" y="1438" type="curve" smooth="yes"/>
      <point x="462" y="1486"/>
      <point x="457" y="1513"/>
      <point x="434" y="1561" type="curve"/>
      <point x="293" y="1588" type="line"/>
    </contour>
    <contour>
      <point x="147" y="1024" type="move" name="_top"/>
    </contour>
  </outline>
</glyph>
<glyph name="hungarumlaut.case" format="1">
  <advance width="797"/>
  <outline>
    <contour>
      <point x="374" y="1634" type="line"/>
      <point x="403" y="1582" type="line"/>
      <point x="685" y="1712" type="line" smooth="yes"/>
      <point x="726" y="1731"/>
      <point x="744" y="1784"/>
      <point x="720" y="1828" type="curve" smooth="yes"/>
      <point x="693" y="1878"/>
      <point x="637" y="1878"/>
      <point x="600" y="1843" type="curve" smooth="yes"/>
    </contour>
    <contour>
      <point x="337" y="1912"/>
      <point x="284" y="1895"/>
      <point x="252" y="1839" type="curve" smooth="yes"/>
      <point x="126" y="1619" type="line"/>
      <point x="180" y="1581" type="line"/>
      <point x="369" y="1751" type="line" smooth="yes"/>
      <point x="416" y="1793"/>
      <point x="410" y="1844"/>
      <point x="379" y="1873" type="curve" smooth="yes"/>
    </contour>
    <contour>
      <point x="353" y="1434" type="move" name="_top"/>
    </contour>
  </outline>
</glyph>
<glyph name="ka-cy.ss01" format="1">
  <advance width="1100"/>
  <outline>
    <contour>
      <point x="73" y="1024" type="line"/>
      <point x="73" y="940" type="line"/>
      <point x="202" y="946" type="line"/>
      <point x="194" y="899"/>
      <point x="194" y="862"/>
      <point x="194" y="807" type="curve" smooth="yes"/>
      <point x="192" y="311" type="line" smooth="yes"/>
      <point x="191" y="164"/>
      <point x="195" y="61"/>
      <point x="70" y="61" type="curve"/>
      <point x="70" y="0" type="line"/>
      <point x="488" y="0" type="line"/>
      <point x="488" y="84" type="line"/>
      <point x="359" y="78" type="line"/>
      <point x="367" y="125"/>
      <point x="367" y="162"/>
      <point x="367" y="217" type="curve" smooth="yes"/>
      <point x="370" y="713" type="line" smooth="yes"/>
      <point x="371" y="860"/>
      <point x="366" y="963"/>
      <point x="491" y="963" type="curve"/>
      <point x="491" y="1024" type="line"/>
    </contour>
    <contour>
      <point x="366" y="578" type="line"/>
      <point x="366" y="497" type="line"/>
      <point x="486" y="502" type="line"/>
      <point x="529" y="485"/>
      <point x="553" y="451"/>
      <point x="574" y="408" type="curve" smooth="yes"/>
      <point x="613" y="328"/>
      <point x="640" y="266"/>
      <point x="678" y="184" type="curve" smooth="yes"/>
      <point x="736" y="58"/>
      <point x="805" y="0"/>
      <point x="880" y="0" type="curve" smooth="yes"/>
      <point x="1066" y="0" type="line"/>
      <point x="1066" y="61" type="line"/>
      <point x="972" y="61"/>
      <point x="889" y="143"/>
      <point x="842" y="244" type="curve" smooth="yes"/>
      <point x="813" y="306"/>
      <point x="758" y="403"/>
      <point x="730" y="465" type="curve" smooth="yes"/>
      <point x="699" y="533"/>
      <point x="620" y="548"/>
      <point x="480" y="548" type="curve"/>
      <point x="480" y="578" type="line"/>
    </contour>
    <contour>
      <point x="763" y="1057"/>
      <point x="694" y="957"/>
      <point x="634" y="731" type="curve" smooth="yes"/>
      <point x="596" y="592"/>
      <point x="551" y="578"/>
      <point x="429" y="578" type="curve"/>
      <point x="429" y="531" type="line"/>
      <point x="511" y="530" type="line" smooth="yes"/>
      <point x="613" y="530"/>
      <point x="680" y="585"/>
      <point x="711" y="697" type="curve" smooth="yes"/>
      <point x="756" y="859"/>
      <point x="766" y="892"/>
      <point x="813" y="936" type="curve"/>
      <point x="813" y="862"/>
      <point x="856" y="830"/>
      <point x="914" y="830" type="curve" smooth="yes"/>
      <point x="984" y="830"/>
      <point x="1020" y="876"/>
      <point x="1020" y="938" type="curve" smooth="yes"/>
      <point x="1020" y="1008"/>
      <point x="971" y="1057"/>
      <point x="886" y="1057" type="curve" smooth="yes"/>
    </contour>
  </outline>
</glyph>
